<svg width="370" height="375" viewBox="0 0 370 375" fill="none" xmlns="http://www.w3.org/2000/svg">
<g filter="url(#filter0_d_9_38)">
<rect x="3" width="364" height="369" rx="15" fill="white" fill-opacity="0.8" shape-rendering="crispEdges"/>
<rect x="3.5" y="0.5" width="363" height="368" rx="14.5" stroke="#EDEDED" shape-rendering="crispEdges"/>
</g>
<path d="M3 15C3 6.71574 9.71573 0 18 0H352C360.284 0 367 6.71573 367 15V253H3V15Z" fill="#A6D5A6" fill-opacity="0.8"/>
<path d="M3 253H367V354C367 362.284 360.284 369 352 369H18C9.71573 369 3 362.284 3 354V253Z" fill="#C9876C" fill-opacity="0.8"/>
<path d="M239.5 253H244V275L239.5 278V253Z" fill="#E3865F"/>
<path d="M327.5 253H323V275L327.5 278V253Z" fill="#E3865F"/>
<path d="M245 204H322.5L336 246H230L245 204Z" fill="#FF9365"/>
<rect x="230" y="246" width="106" height="10" fill="#E3865F"/>
<rect x="231" y="256" width="9" height="22" fill="#FF9163"/>
<rect x="326" y="256" width="9" height="22" fill="#FF9163"/>
<defs>
<filter id="filter0_d_9_38" x="0" y="0" width="370" height="375" filterUnits="userSpaceOnUse" color-interpolation-filters="sRGB">
<feFlood flood-opacity="0" result="BackgroundImageFix"/>
<feColorMatrix in="SourceAlpha" type="matrix" values="0 0 0 0 0 0 0 0 0 0 0 0 0 0 0 0 0 0 127 0" result="hardAlpha"/>
<feMorphology radius="2" operator="erode" in="SourceAlpha" result="effect1_dropShadow_9_38"/>
<feOffset dy="3"/>
<feGaussianBlur stdDeviation="2.5"/>
<feComposite in2="hardAlpha" operator="out"/>
<feColorMatrix type="matrix" values="0 0 0 0 0 0 0 0 0 0 0 0 0 0 0 0 0 0 0.25 0"/>
<feBlend mode="normal" in2="BackgroundImageFix" result="effect1_dropShadow_9_38"/>
<feBlend mode="normal" in="SourceGraphic" in2="effect1_dropShadow_9_38" result="shape"/>
</filter>
</defs>
</svg>
