<svg width="178" height="217" viewBox="0 0 178 217" fill="none" xmlns="http://www.w3.org/2000/svg">
<g id="Layer_1" clip-path="url(#clip0_33_7361)">
<path id="Vector" d="M39.5816 33.814C-10.12 57.0464 -13.8381 177.421 37.501 204.879C73.6968 224.231 177.397 225.106 177.397 160.052C177.397 94.9992 100.401 114.77 96.3254 117.8C92.2503 120.831 145.547 120.215 141.866 74.871C138.197 29.5272 74.9772 17.2704 39.5816 33.814Z" fill="#445AFF" stroke="black" stroke-miterlimit="10"/>
<path id="Vector_2" d="M78.72 85.1196C78.72 85.8834 92.1149 86.487 108.649 86.487C125.184 86.487 138.579 85.871 138.579 85.1196" stroke="black" stroke-linecap="round" stroke-linejoin="round"/>
<path id="Vector_3" d="M53.666 43.3111C66.1838 43.3111 76.3315 34.1174 76.3315 22.7764C76.3315 11.4354 66.1838 2.2417 53.666 2.2417C41.1482 2.2417 31.0005 11.4354 31.0005 22.7764C31.0005 34.1174 41.1482 43.3111 53.666 43.3111Z" fill="white" stroke="#111111" stroke-miterlimit="10"/>
<path id="Vector_4" d="M107.073 41.6851C119.591 41.6851 129.739 32.4914 129.739 21.1504C129.739 9.80941 119.591 0.615723 107.073 0.615723C94.5554 0.615723 84.4077 9.80941 84.4077 21.1504C84.4077 32.4914 94.5554 41.6851 107.073 41.6851Z" fill="white" stroke="#111111" stroke-miterlimit="10"/>
<path id="Vector_5" d="M102.801 32.3112C111.851 32.3112 119.188 25.6655 119.188 17.4676C119.188 9.26973 111.851 2.62402 102.801 2.62402C93.7511 2.62402 86.4146 9.26973 86.4146 17.4676C86.4146 25.6655 93.7511 32.3112 102.801 32.3112Z" fill="black"/>
<path id="Vector_6" d="M48.5442 32.4097C57.1251 32.4097 64.0814 26.106 64.0814 18.3299C64.0814 10.5538 57.1251 4.25 48.5442 4.25C39.9633 4.25 33.0071 10.5538 33.0071 18.3299C33.0071 26.106 39.9633 32.4097 48.5442 32.4097Z" fill="black"/>
<path id="Vector_7" d="M71.8254 75.4868C80.3204 80.8823 81.5146 87.4479 72.281 95.7135" stroke="black" stroke-linecap="round" stroke-linejoin="round"/>
<path id="Vector_8" opacity="0.5" d="M21.7915 160.089C21.7915 160.089 28.0827 198.473 62.0379 202.785C95.9807 207.108 21.7915 160.089 21.7915 160.089Z" fill="#A6C7F7"/>
</g>
<defs>
<clipPath id="clip0_33_7361">
<rect width="178" height="217" fill="white"/>
</clipPath>
</defs>
</svg>
