<svg width="21" height="18" viewBox="0 0 21 18" fill="none" xmlns="http://www.w3.org/2000/svg">
<path fill-rule="evenodd" clip-rule="evenodd" d="M3 4.5C3 3.90905 3.1164 3.32389 3.34254 2.77792C3.56869 2.23196 3.90016 1.73588 4.31802 1.31802C4.73588 0.900156 5.23196 0.568688 5.77792 0.342542C6.32389 0.116396 6.90905 0 7.5 0C8.09095 0 8.67611 0.116396 9.22208 0.342542C9.76804 0.568688 10.2641 0.900156 10.682 1.31802C11.0998 1.73588 11.4313 2.23196 11.6575 2.77792C11.8836 3.32389 12 3.90905 12 4.5C12 5.69347 11.5259 6.83807 10.682 7.68198C9.83807 8.52589 8.69347 9 7.5 9C6.30653 9 5.16193 8.52589 4.31802 7.68198C3.47411 6.83807 3 5.69347 3 4.5ZM7.5 2C6.83696 2 6.20107 2.26339 5.73223 2.73223C5.26339 3.20107 5 3.83696 5 4.5C5 5.16304 5.26339 5.79893 5.73223 6.26777C6.20107 6.73661 6.83696 7 7.5 7C8.16304 7 8.79893 6.73661 9.26777 6.26777C9.73661 5.79893 10 5.16304 10 4.5C10 3.83696 9.73661 3.20107 9.26777 2.73223C8.79893 2.26339 8.16304 2 7.5 2ZM7.5 10C9.493 10 11.305 10.608 12.637 11.466C13.304 11.896 13.875 12.403 14.29 12.956C14.697 13.501 15 14.156 15 14.857C15 15.612 14.65 16.217 14.136 16.654C13.651 17.064 13.019 17.33 12.366 17.513C11.053 17.88 9.316 18 7.5 18C5.684 18 3.947 17.88 2.635 17.513C1.981 17.33 1.349 17.064 0.865 16.654C0.349 16.218 0 15.612 0 14.857C0 14.155 0.303 13.501 0.71 12.957C1.125 12.403 1.696 11.895 2.363 11.467C3.695 10.607 5.507 10 7.5 10ZM7.5 12C5.903 12 4.465 12.492 3.445 13.148C2.935 13.476 2.555 13.83 2.311 14.155C2.061 14.489 2 14.731 2 14.857C2 14.931 2.015 15.007 2.157 15.127C2.33 15.275 2.651 15.441 3.173 15.587C4.213 15.877 5.726 16 7.5 16C9.274 16 10.787 15.877 11.827 15.587C12.349 15.441 12.67 15.275 12.843 15.127C12.985 15.007 13 14.931 13 14.857C13 14.731 12.939 14.489 12.689 14.155C12.445 13.83 12.065 13.476 11.555 13.148C10.535 12.492 9.097 12 7.5 12ZM16 10C17.32 10 18.518 10.436 19.4 11.051C20.222 11.624 21 12.528 21 13.571C21 14.158 20.747 14.644 20.362 14.997C20.005 15.325 19.553 15.525 19.118 15.657C18.248 15.92 17.128 16 16 16H15.797C15.927 15.652 16 15.27 16 14.857C15.9987 14.633 15.9787 14.4163 15.94 14.207L15.893 14H16C17.081 14 17.96 13.918 18.539 13.743C18.801 13.663 18.936 13.583 18.994 13.537C18.965 13.419 18.809 13.077 18.256 12.692C17.7741 12.3637 17.2263 12.1447 16.6509 12.0504C16.0755 11.9561 15.4865 11.9887 14.925 12.146C14.441 11.5711 13.8733 11.0722 13.241 10.666C14.095 10.2287 15.0406 10.0005 16 10ZM13 6C13 5.20435 13.3161 4.44129 13.8787 3.87868C14.4413 3.31607 15.2044 3 16 3C16.7956 3 17.5587 3.31607 18.1213 3.87868C18.6839 4.44129 19 5.20435 19 6C19 6.79565 18.6839 7.55871 18.1213 8.12132C17.5587 8.68393 16.7956 9 16 9C15.2044 9 14.4413 8.68393 13.8787 8.12132C13.3161 7.55871 13 6.79565 13 6ZM16 5C15.7348 5 15.4804 5.10536 15.2929 5.29289C15.1054 5.48043 15 5.73478 15 6C15 6.26522 15.1054 6.51957 15.2929 6.70711C15.4804 6.89464 15.7348 7 16 7C16.2652 7 16.5196 6.89464 16.7071 6.70711C16.8946 6.51957 17 6.26522 17 6C17 5.73478 16.8946 5.48043 16.7071 5.29289C16.5196 5.10536 16.2652 5 16 5Z" fill="black"/>
</svg>
