<svg width="64" height="58" viewBox="0 0 64 58" fill="none" xmlns="http://www.w3.org/2000/svg">
<g clip-path="url(#clip0_1639_1732)">
<path d="M31.9169 40.2537C23.2452 40.2537 15.4067 38.312 9.75379 35.2014C4.0825 32.0808 0.718262 27.8536 0.718262 23.311C0.718262 18.7685 4.0825 14.5413 9.75379 11.4206C15.4067 8.3101 23.2452 6.36835 31.9169 6.36835C40.5885 6.36835 48.427 8.3101 54.0799 11.4206C59.7512 14.5413 63.1155 18.7685 63.1155 23.311C63.1155 27.8536 59.7512 32.0808 54.0799 35.2014C48.427 38.312 40.5885 40.2537 31.9169 40.2537Z" fill="#CBCBCB" stroke="black"/>
<path d="M31.9147 6.08179C49.3012 6.08179 63.3972 13.7945 63.3972 23.311C63.3972 32.8275 49.3012 40.5402 31.9147 40.5402C14.5281 40.5402 0.432126 32.8275 0.432126 23.311C0.432126 13.7945 14.5281 6.08179 31.9147 6.08179ZM31.9147 5.65485C23.4342 5.65485 15.4528 7.46508 9.44411 10.7547C3.35546 14.0891 0 18.5463 0 23.311C0 28.0757 3.3533 32.5351 9.44411 35.8674C15.4528 39.1569 23.4342 40.9672 31.9147 40.9672C40.3951 40.9672 48.3765 39.1569 54.3852 35.8674C60.476 32.5351 63.8293 28.0757 63.8293 23.311C63.8293 18.5463 60.476 14.0869 54.3852 10.7547C48.3765 7.46508 40.3951 5.65485 31.9147 5.65485Z" fill="black"/>
<path d="M31.9334 57.7865C22.4936 57.7865 14.8147 54.1426 14.8147 49.6618C14.8147 45.1811 22.4936 41.5371 31.9334 41.5371C41.3732 41.5371 49.052 45.1811 49.052 49.6618C49.052 54.1426 41.3732 57.7865 31.9334 57.7865Z" fill="#B7BABF"/>
<path d="M31.9312 41.7485C41.2672 41.7485 48.8338 45.29 48.8338 49.6597C48.8338 54.0294 41.2651 57.5709 31.9312 57.5709C22.5972 57.5709 15.0286 54.0294 15.0286 49.6597C15.0286 45.29 22.5972 41.7485 31.9312 41.7485ZM31.9312 41.3215C27.3528 41.3215 23.0423 42.1583 19.7949 43.6804C16.4438 45.2494 14.5964 47.3734 14.5964 49.6597C14.5964 51.946 16.4416 54.07 19.7949 55.639C23.0445 57.1589 27.355 57.9979 31.9312 57.9979C36.5074 57.9979 40.82 57.1611 44.0674 55.639C47.4186 54.07 49.2659 51.946 49.2659 49.6597C49.2659 47.3734 47.4207 45.2494 44.0674 43.6804C40.8178 42.1605 36.5074 41.3215 31.9312 41.3215Z" fill="black"/>
<path d="M31.8988 36.0403C47.0356 36.0403 59.3064 29.7142 59.3064 21.9106C59.3064 14.1071 47.0356 7.78101 31.8988 7.78101C16.762 7.78101 4.49121 14.1071 4.49121 21.9106C4.49121 29.7142 16.762 36.0403 31.8988 36.0403Z" fill="#BBBEC1"/>
<path d="M32.7756 35.8268C19.7254 35.8268 12.8005 32.5777 9.28735 29.8496C5.45007 26.8717 4.74139 23.9215 4.71114 23.7977C4.68521 23.6867 4.75219 23.5757 4.86238 23.5458C4.93584 23.5244 5.13894 23.4433 5.22753 23.3131C5.23401 23.2341 5.18431 23.0014 5.14326 22.8136C5.0093 22.186 4.82349 21.33 5.2124 20.7451C5.60564 20.1537 6.5736 20.1537 7.27796 20.1537H7.34494C7.51779 20.1537 7.78787 20.1537 7.91751 20.1303C7.88078 20.0385 7.79219 19.8826 7.71873 19.7524C7.39896 19.1931 6.86528 18.2581 7.23043 17.2655C7.47026 16.6165 8.01906 16.2878 8.85954 16.2878C9.14475 16.2878 9.41699 16.3241 9.63737 16.3518C9.7346 16.3646 9.82102 16.3753 9.89017 16.3817C9.87504 16.2558 9.83399 16.0508 9.79942 15.8758C9.63737 15.0625 9.41483 13.946 9.93986 13.4636C10.1451 13.2736 10.3763 13.1775 10.6226 13.1775C10.8862 13.1775 11.1174 13.2885 11.2859 13.3675C11.2946 13.3718 11.3054 13.376 11.3162 13.3824C11.2924 13.3163 11.2622 13.2437 11.2362 13.1818C11.005 12.6225 10.5729 11.5808 11.4264 10.9083C11.6921 10.6991 11.9989 10.5945 12.3425 10.5945C12.8416 10.5945 13.3234 10.8165 13.7102 10.9937C13.9197 11.0898 14.138 11.1901 14.2395 11.1901C14.3303 11.1261 14.4167 10.744 14.4858 10.4366C14.609 9.88793 14.7624 9.20483 15.1772 8.80137C15.4084 8.57722 15.7757 8.47476 16.3375 8.47476C16.6832 8.47476 17.0613 8.51532 17.3962 8.54947C17.6749 8.57936 17.9363 8.60711 18.133 8.60711C18.3296 8.60711 18.3836 8.57722 18.3858 8.57509C18.4355 8.50678 18.4052 8.13961 18.3858 7.87277C18.3317 7.17259 18.2561 6.21197 18.8827 5.63346C19.1679 5.37089 19.6065 5.23854 20.1877 5.23854C20.9742 5.23854 21.8363 5.47976 22.2425 5.60785C22.3743 5.08271 22.7783 3.883 23.7895 3.6247C23.9018 3.59695 24.0164 3.58201 24.1309 3.58201C24.7985 3.58201 25.384 4.06232 25.8118 4.41454C25.9847 4.55757 26.218 4.74756 26.3153 4.77104C26.3844 4.68565 26.4752 4.36331 26.54 4.12422C26.7539 3.35573 27.078 2.19445 28.0783 1.77391C28.3311 1.66718 28.5991 1.61381 28.8799 1.61381C29.6599 1.61381 30.3664 2.01727 30.8828 2.31186C31.06 2.41219 31.2761 2.536 31.369 2.55948C31.436 2.48904 31.5483 2.24995 31.6304 2.07277C31.9545 1.38112 32.499 0.224113 33.7327 0.21344H33.7586C35.2387 0.21344 35.8156 1.49426 36.0619 2.04075C36.1029 2.13041 36.1483 2.23074 36.1699 2.26062C36.1699 2.26062 36.1893 2.2713 36.252 2.2713C36.3147 2.2713 36.386 2.26276 36.4594 2.25422C36.5567 2.24355 36.6647 2.23074 36.777 2.23074C37.0277 2.23074 37.2286 2.29264 37.395 2.42073C37.7428 2.6897 37.6586 3.29596 37.583 3.82963C37.5678 3.93423 37.5484 4.07086 37.5397 4.18186C37.5527 4.16905 37.5635 4.15411 37.5765 4.1413C37.8444 3.84244 38.2938 3.33865 39.1581 3.32157H39.1883C40.1735 3.32157 40.6532 4.29713 40.9708 4.94182C41.0616 5.1254 41.1631 5.33247 41.2193 5.38157C41.2279 5.38584 41.2971 5.42213 41.5931 5.42213C41.7551 5.42213 41.9474 5.41145 42.1484 5.40078C42.3774 5.38797 42.6129 5.3773 42.8419 5.3773C43.4123 5.3773 43.7602 5.45842 43.9676 5.63987C44.3933 6.00917 44.4062 6.83957 44.417 7.64436C44.4235 8.03074 44.4321 8.67969 44.5467 8.76508C44.5575 8.76935 44.5704 8.77362 44.5769 8.77362C44.646 8.77362 44.7822 8.59003 44.8816 8.45768C45.0998 8.16309 45.4001 7.76176 45.9208 7.72974C45.9446 7.72974 45.9684 7.72761 45.99 7.72761C46.6317 7.72761 47.0011 8.24848 47.2712 8.62632C47.3663 8.75867 47.4635 8.89529 47.5305 8.94226C47.5391 8.94866 47.5931 8.97641 47.8179 8.97641C47.9324 8.97641 48.0598 8.97001 48.196 8.96361C48.3559 8.95507 48.5265 8.94653 48.6972 8.94653C49.0062 8.94653 49.4534 8.97214 49.7797 9.18561C50.2745 9.50796 50.2399 10.4643 50.2097 11.3075C50.1989 11.6235 50.1837 12.0568 50.2313 12.1507C50.2745 12.202 50.4819 12.2724 50.6634 12.3343C51.115 12.4901 51.7329 12.7015 52.1931 13.2949C52.7095 13.9631 52.4546 15.2994 52.2839 16.1832C52.2363 16.4265 52.1802 16.7233 52.1802 16.8385C52.2752 16.8791 52.541 16.9026 52.7246 16.9175C53.295 16.9688 54.0081 17.0328 54.276 17.5323C54.5288 18.002 54.4207 18.7918 54.3321 19.4258C54.2997 19.6649 54.2565 19.9808 54.2673 20.1196C54.371 20.1132 54.5461 20.0705 54.7275 20.0235C55.03 19.9467 55.4081 19.8506 55.7646 19.8506C56.0995 19.8506 56.3739 19.9381 56.5814 20.1089C57.3181 20.7216 57.1885 22.5937 57.1539 22.9886C57.3549 23.4732 57.6768 23.5394 57.9663 23.5394C58.0852 23.5394 58.2062 23.5266 58.312 23.5138C58.4049 23.5031 58.4935 23.4924 58.5735 23.4924C58.6664 23.4924 58.8025 23.5052 58.9019 23.6077C58.9429 23.6504 58.9624 23.708 58.9581 23.7678C58.9494 23.8916 58.7053 26.8546 55.3304 29.8432C52.2471 32.5735 45.8301 35.8289 32.7734 35.8289L32.7756 35.8268Z" fill="#DED9D9"/>
<path d="M33.7565 0.426935C35.3834 0.426935 35.7961 2.11762 35.9927 2.38446C36.0489 2.46131 36.1397 2.48266 36.2498 2.48266C36.3989 2.48266 36.5869 2.4421 36.777 2.4421C36.9434 2.4421 37.1141 2.47198 37.261 2.58726C37.704 2.93095 37.1227 4.39109 37.3928 4.51276C37.4079 4.51917 37.4209 4.52344 37.436 4.52344C37.6975 4.52344 38.0216 3.55855 39.1602 3.53507C39.1689 3.53507 39.1775 3.53507 39.1861 3.53507C40.3702 3.53507 40.7591 5.26845 41.0767 5.54169C41.1588 5.61427 41.3489 5.63562 41.5931 5.63562C41.9474 5.63562 42.4163 5.59079 42.8441 5.59079C43.2719 5.59079 43.637 5.63349 43.8272 5.79999C44.4905 6.37423 43.9547 8.72454 44.4559 8.95722C44.4991 8.97857 44.5423 8.98711 44.5812 8.98711C44.9918 8.98711 45.1992 7.98593 45.9381 7.9411C45.9576 7.9411 45.977 7.9411 45.9943 7.9411C46.7635 7.9411 47.0984 8.90172 47.4095 9.11733C47.4916 9.17496 47.6385 9.18991 47.8222 9.18991C48.0707 9.18991 48.3861 9.16002 48.7016 9.16002C49.0581 9.16002 49.4146 9.19845 49.6652 9.36282C50.3026 9.77909 49.8164 11.9842 50.0628 12.2746C50.3091 12.567 51.3634 12.567 52.0268 13.423C52.6901 14.279 51.8798 16.5739 51.9771 16.9218C52.0743 17.2719 53.7207 16.9453 54.088 17.6305C54.4553 18.3158 53.9152 19.9702 54.088 20.269C54.1139 20.3139 54.1701 20.3331 54.2479 20.3331C54.5525 20.3331 55.1986 20.062 55.769 20.062C56.0218 20.062 56.2594 20.1153 56.4453 20.269C57.1583 20.8604 56.9357 23.0143 56.9357 23.0143C57.1691 23.6291 57.5904 23.7486 57.9685 23.7486C58.204 23.7486 58.4244 23.7038 58.5756 23.7038C58.6513 23.7038 58.7118 23.7166 58.7442 23.7507C58.7442 23.7507 57.9166 35.6112 32.7756 35.6112C7.63448 35.6112 4.92289 23.7529 4.92289 23.7529C4.92289 23.7529 5.27723 23.6525 5.42415 23.4092C5.57107 23.1637 4.87319 21.6481 5.3939 20.8646C5.718 20.3779 6.59953 20.3694 7.28013 20.3694C7.3039 20.3694 7.3255 20.3694 7.34927 20.3694C7.7317 20.3694 8.03851 20.3672 8.12494 20.2733C8.37125 20.0086 6.92147 18.7363 7.43786 17.3402C7.69065 16.655 8.29563 16.5013 8.86387 16.5013C9.31977 16.5013 9.75405 16.5995 9.96579 16.5995C10.0263 16.5995 10.0695 16.5909 10.0889 16.5696C10.2618 16.3839 9.42564 14.23 10.0889 13.6194C10.2748 13.4486 10.4563 13.391 10.6248 13.391C10.9878 13.391 11.2967 13.6578 11.4718 13.6578C11.5085 13.6578 11.5387 13.6472 11.5625 13.6194C11.7591 13.3996 10.506 11.9053 11.5625 11.0749C11.811 10.8785 12.0767 10.8059 12.3425 10.8059C13.1073 10.8059 13.8744 11.4036 14.2374 11.4036C14.2871 11.4036 14.3281 11.3929 14.3605 11.3694C14.7278 11.1005 14.6695 9.59123 15.3263 8.95509C15.5381 8.75016 15.914 8.68825 16.3353 8.68825C16.9554 8.68825 17.6792 8.8206 18.1308 8.8206C18.3253 8.8206 18.47 8.79712 18.5349 8.72668C18.8546 8.38299 18.1416 6.60478 19.0253 5.78932C19.2976 5.53742 19.7232 5.4499 20.1812 5.4499C21.2075 5.4499 22.3959 5.88538 22.3959 5.88538C22.3959 5.88538 22.6833 4.12425 23.837 3.82966C23.9343 3.80404 24.0315 3.79337 24.1244 3.79337C25.0967 3.79337 25.9156 4.98454 26.3239 4.98454C26.3477 4.98454 26.3693 4.98027 26.3887 4.97173C26.8057 4.80735 26.756 2.55524 28.1561 1.96819C28.396 1.86786 28.638 1.82517 28.8735 1.82517C30.0035 1.82517 31.0298 2.77725 31.3863 2.77725C31.3906 2.77725 31.3949 2.77725 31.3971 2.77725C31.8141 2.75163 32.0842 0.441878 33.7306 0.426935C33.737 0.426935 33.7457 0.426935 33.7543 0.426935M33.7565 -6.09364e-06H33.7284C32.3564 0.0128021 31.7773 1.24666 31.4316 1.98314C31.3863 2.08133 31.3301 2.20088 31.2826 2.29053C31.1918 2.24357 31.0795 2.17953 30.9887 2.12616C30.4831 1.83584 29.7183 1.39823 28.8778 1.39823C28.5688 1.39823 28.2706 1.458 27.9919 1.57541C26.8965 2.03437 26.5551 3.25756 26.3304 4.06448C26.2958 4.18829 26.2526 4.33985 26.2137 4.4594C26.1295 4.39536 26.0301 4.31424 25.948 4.24593C25.4942 3.87449 24.8741 3.36429 24.1287 3.36429C23.9948 3.36429 23.863 3.38137 23.7333 3.41339C22.7416 3.66529 22.2814 4.70702 22.0912 5.33463C21.6267 5.19801 20.8791 5.01869 20.1856 5.01869C19.5482 5.01869 19.0599 5.17025 18.7336 5.47125C18.0314 6.1202 18.1114 7.13845 18.1697 7.88347C18.1827 8.04784 18.2 8.25704 18.1956 8.38726C18.1783 8.38726 18.1589 8.38726 18.1351 8.38726C17.9493 8.38726 17.6922 8.35951 17.42 8.33176C17.0807 8.29547 16.6962 8.25491 16.3397 8.25491C15.9486 8.25491 15.3868 8.29547 15.0281 8.64342C14.5679 9.09171 14.4059 9.80897 14.2762 10.3853C14.2374 10.5583 14.1833 10.7973 14.1336 10.9382C14.0386 10.9019 13.9089 10.8422 13.8052 10.7931C13.399 10.6052 12.8956 10.3725 12.3468 10.3725C11.9536 10.3725 11.6014 10.4942 11.2967 10.7333C10.4498 11.4015 10.7004 12.377 10.9359 12.994C10.8408 12.9705 10.7371 12.9555 10.6291 12.9555C10.3245 12.9555 10.0457 13.0708 9.79727 13.2992C9.18365 13.8649 9.42132 15.0475 9.59201 15.91C9.60497 15.9804 9.62009 16.0551 9.63522 16.1277C9.41699 16.1 9.14908 16.0658 8.86603 16.0658C7.69497 16.0658 7.22396 16.6742 7.03382 17.1844C6.63194 18.2688 7.19803 19.2593 7.53509 19.8506C7.55021 19.8763 7.56533 19.904 7.58046 19.9318C7.49836 19.9318 7.41409 19.9318 7.34927 19.9318H7.3147H7.28013C6.52391 19.9318 5.49113 19.9318 5.03308 20.6191C4.59663 21.2766 4.79973 22.2223 4.93369 22.8478C4.95962 22.9716 4.99419 23.1317 5.00715 23.2277C4.95097 23.2726 4.86023 23.3153 4.80189 23.3345C4.58583 23.3985 4.45187 23.6205 4.50156 23.8383C4.52965 23.9664 5.25778 26.987 9.1534 30.0097C11.4156 31.7644 14.2871 33.1605 17.6922 34.1596C21.9227 35.402 26.998 36.0296 32.7734 36.0296C38.5488 36.0296 43.529 35.3998 47.5672 34.1574C50.8233 33.1563 53.4852 31.7538 55.4751 29.9905C58.9148 26.9443 59.1655 23.9002 59.1741 23.7721C59.1828 23.6547 59.1417 23.5394 59.0596 23.454C58.9451 23.3323 58.7809 23.2683 58.5735 23.2683C58.4827 23.2683 58.3877 23.279 58.2883 23.2896C58.1824 23.3025 58.0744 23.3131 57.9663 23.3131C57.7071 23.3131 57.5148 23.2491 57.3743 22.9417C57.4219 22.3717 57.5061 20.5871 56.7218 19.9339C56.4755 19.729 56.1536 19.6265 55.7668 19.6265C55.3801 19.6265 54.9911 19.7268 54.6757 19.8079C54.6195 19.8229 54.5569 19.8378 54.4964 19.8528C54.5093 19.7247 54.5309 19.5731 54.5482 19.4472C54.6433 18.747 54.7535 17.9529 54.4683 17.4235C54.1442 16.8215 53.3361 16.7489 52.7463 16.6977C52.6425 16.6891 52.5172 16.6763 52.4178 16.6635C52.4373 16.5354 52.4697 16.3625 52.4999 16.2131C52.6879 15.2354 52.945 13.8991 52.3681 13.1562C51.869 12.5094 51.1863 12.2767 50.7369 12.123C50.6332 12.0867 50.4992 12.0419 50.4257 12.0056C50.4085 11.8583 50.4214 11.5424 50.4301 11.3054C50.4625 10.4046 50.4992 9.3863 49.9029 8.99778C49.5269 8.75229 49.0365 8.72454 48.7016 8.72454C48.5244 8.72454 48.3451 8.73308 48.1895 8.74162C48.0555 8.74802 47.9281 8.75443 47.8222 8.75443C47.7163 8.75443 47.6666 8.74802 47.6428 8.74375C47.5975 8.69679 47.5154 8.58152 47.4527 8.49613C47.1718 8.10121 46.7483 7.50562 45.9943 7.50562C45.9662 7.50562 45.9381 7.50562 45.91 7.50776C45.2899 7.54618 44.9399 8.01369 44.7109 8.32322C44.6979 8.34243 44.6828 8.36164 44.6655 8.38299C44.6417 8.16525 44.6374 7.86212 44.6353 7.63371C44.6223 6.78409 44.6093 5.90459 44.1102 5.47125C43.7883 5.1916 43.2633 5.15745 42.8419 5.15745C42.6064 5.15745 42.3666 5.17025 42.1354 5.18093C41.9366 5.1916 41.7486 5.20014 41.5909 5.20014C41.4591 5.20014 41.3835 5.19374 41.3446 5.18733C41.2971 5.11048 41.2215 4.95892 41.1631 4.84151C40.8433 4.19042 40.3054 3.10172 39.1861 3.10172H39.1516C38.5552 3.11453 38.1318 3.33868 37.8336 3.5799C37.8962 3.06543 37.9071 2.53816 37.5289 2.24571C37.3237 2.0856 37.0774 2.00875 36.777 2.00875C36.6517 2.00875 36.5372 2.02156 36.4335 2.03224C36.386 2.0365 36.3406 2.04291 36.3039 2.04504C36.2887 2.01302 36.2736 1.97673 36.2585 1.94471C35.9949 1.3598 35.377 -0.00854492 33.7565 -0.00854492V-6.09364e-06Z" fill="black"/>
<path d="M26.9181 11.8561C26.9181 11.8561 26.5357 9.9968 27.5404 9.65312C28.5451 9.30943 29.3575 10.1911 29.7399 10.0929C30.1223 9.99467 29.3099 7.3519 31.1746 6.86305C33.0392 6.37421 34.4739 8.82058 34.4739 8.82058" stroke="black" stroke-width="0.5" stroke-linecap="round" stroke-linejoin="round"/>
<path d="M19.6972 13.8628C19.6972 13.8628 19.2673 11.9543 20.7019 11.5124C22.1366 11.0706 23.044 12.6865 23.044 12.6865" stroke="black" stroke-width="0.5" stroke-linecap="round" stroke-linejoin="round"/>
<path d="M12.3338 22.4678C12.3338 22.4678 11.7591 21.3044 12.3338 20.6191C12.9085 19.9339 13.8635 20.9628 14.0558 20.6191C14.2481 20.2754 13.6259 18.5058 14.6781 18.0212C15.7303 17.5366 17.165 19.2977 17.165 19.2977" stroke="black" stroke-width="0.5" stroke-linecap="round" stroke-linejoin="round"/>
<path d="M37.6283 10.1441C37.6283 10.1441 38.7756 8.0884 40.0676 9.01913C41.3597 9.94986 40.355 11.4399 40.355 11.4399" stroke="black" stroke-width="0.5" stroke-linecap="round" stroke-linejoin="round"/>
<path opacity="0.7" d="M56.9379 23.0164C56.9379 23.0164 57.0027 22.3781 56.9487 21.6993C55.0733 25.2856 49.2028 31.2969 30.9261 31.2969C15.7714 31.2969 8.48793 27.1641 5.04388 23.708C4.97474 23.7379 4.92505 23.7529 4.92505 23.7529C4.92505 23.7529 7.63664 35.6133 32.7777 35.6133C57.9188 35.6133 58.7463 23.7529 58.7463 23.7529C58.5411 23.5351 57.3916 24.2118 56.9379 23.0164Z" fill="#E3B49F" fill-opacity="0.2"/>
<path d="M42.5071 13.5212C42.5071 13.5212 44.0843 12.0739 45.089 12.6503C46.0937 13.2266 45.6141 15.4297 45.6141 15.4297" stroke="black" stroke-width="0.5" stroke-linecap="round" stroke-linejoin="round"/>
<path d="M14.3433 27.7149C14.3433 27.7149 14.3433 26.2462 14.918 26.0008C15.4927 25.7553 16.3526 26.7842 16.6875 26.6369C17.0224 26.4896 16.6875 24.5812 17.8348 24.483C18.9821 24.3848 19.0297 25.8535 19.4121 26.099C19.7945 26.3444 20.9894 25.2173 21.994 25.8535C22.9987 26.4896 22.3765 28.2529 22.6638 28.5453C22.9512 28.8378 24.051 27.8601 24.6732 28.5453C25.2955 29.2306 24.2908 30.3556 24.6732 30.7483C25.0557 31.1411 25.9156 30.2104 26.3477 30.7483C26.7798 31.2863 26.3477 33.0987 26.3477 33.0987" stroke="black" stroke-width="0.5" stroke-linecap="round" stroke-linejoin="round"/>
<path d="M28.975 22.8691C28.975 22.8691 28.5926 21.5968 29.2624 20.9607C29.9322 20.3245 31.032 21.4837 31.032 21.4837" stroke="black" stroke-width="0.5" stroke-linecap="round" stroke-linejoin="round"/>
<path d="M22.854 22.4678C22.854 22.4678 22.7114 20.1303 23.5238 19.492C24.3362 18.8559 26.1057 19.5411 26.5357 19.2465C26.9657 18.9519 26.3456 17.6305 26.8468 17.2399C27.3481 16.8492 28.6618 17.6796 28.8649 17.4363C29.068 17.1929 28.4479 14.8426 29.7378 14.2556C31.0276 13.6685 32.3672 15.626 32.7497 15.6751C33.1321 15.7242 33.5621 12.5649 35.8588 12.6503C38.1556 12.7356 37.9633 15.086 37.9633 15.086" stroke="black" stroke-width="0.5" stroke-linecap="round" stroke-linejoin="round"/>
<path d="M31.0297 29.4291C31.0297 29.4291 29.7377 28.7929 29.7377 27.764C29.7377 26.7351 31.9372 26.4917 32.1295 26.0989C32.3218 25.7062 31.2523 24.1905 31.8335 22.8691C32.4147 21.5477 33.9941 22.4294 34.2339 22.1839C34.4738 21.9384 34.1389 20.9116 34.4738 20.5679C34.8087 20.2242 35.9084 20.5679 36.3859 20.5679C36.8634 20.5679 37.0622 19.3447 37.9675 19.3447C38.8728 19.3447 40.0676 20.6277 40.2102 20.7686" stroke="black" stroke-width="0.5" stroke-linecap="round" stroke-linejoin="round"/>
<path d="M43.7019 20.7707C43.7019 20.7707 44.1319 19.3959 45.2316 19.3468C46.3314 19.2977 46.7138 21.4837 46.7138 21.4837" stroke="black" stroke-width="0.5" stroke-linecap="round" stroke-linejoin="round"/>
<path d="M50.7303 22.8691C50.7303 22.8691 51.2078 21.8402 52.165 22.0366C53.1222 22.233 52.8348 23.6035 52.8348 23.6035" stroke="black" stroke-width="0.5" stroke-linecap="round" stroke-linejoin="round"/>
<path d="M38.203 31.2393C38.203 31.2393 37.0082 28.9872 37.6283 28.1056C38.2484 27.2239 40.1152 27.7619 40.4976 27.5676C40.8801 27.3733 40.0201 23.9941 41.9323 23.6035C43.8444 23.2128 44.4192 24.4253 44.9917 24.4808C45.5643 24.5363 45.7091 23.4007 46.4739 23.5266C47.2388 23.6526 46.8564 24.6815 47.2863 25.023C47.7163 25.3646 48.9608 24.5342 49.4383 25.1212C49.9158 25.7083 49.4383 26.7863 49.4383 26.7863" stroke="black" stroke-width="0.5" stroke-linecap="round" stroke-linejoin="round"/>
<path d="M42.507 32.2682C42.507 32.2682 42.3968 30.8978 43.5527 30.2616C44.7087 29.6255 45.7306 30.6053 45.7306 30.6053" stroke="black" stroke-width="0.5" stroke-linecap="round" stroke-linejoin="round"/>
<path opacity="0.7" d="M56.9357 23.0164C56.9357 23.0164 57.1561 20.8625 56.4453 20.2712C55.7323 19.6799 54.2609 20.57 54.088 20.2712C53.9152 19.9723 54.4553 18.3179 54.088 17.6327C53.7207 16.9475 52.0743 17.2719 51.9771 16.924C51.8799 16.5739 52.6901 14.2812 52.0268 13.4252C51.3635 12.5692 50.3091 12.5692 50.0628 12.2767C49.8165 11.9843 50.3048 9.7791 49.6652 9.36497C49.0278 8.9487 47.7293 9.33935 47.4095 9.11948C47.0897 8.8996 46.7462 7.89629 45.936 7.94539C45.1257 7.99449 44.9529 9.19419 44.4538 8.96151C43.9547 8.72883 44.4883 6.38065 43.825 5.80428C43.3 5.34959 41.3943 5.82349 41.0745 5.54811C40.7548 5.2706 40.3615 3.51587 39.1602 3.54149C37.9568 3.56497 37.6629 4.643 37.3928 4.52132C37.1228 4.39964 37.704 2.9395 37.261 2.59581C36.8181 2.25213 36.1894 2.66199 35.9927 2.39088C35.7961 2.12191 35.3791 0.416277 33.7349 0.433355C32.8253 0.441894 32.3348 1.15275 32.0085 1.79103C32.1036 1.77182 32.2008 1.75901 32.3046 1.75901C33.9488 1.74407 34.368 3.44756 34.5624 3.71653C34.759 3.98551 35.3899 3.57778 35.8307 3.92147C36.2736 4.26515 35.6924 5.72529 35.9625 5.84697C36.2326 5.96865 36.5264 4.89276 37.7299 4.86714C38.9334 4.84366 39.3266 6.59839 39.6442 6.87377C39.964 7.15128 41.8697 6.67524 42.3947 7.12993C43.058 7.70417 42.5222 10.0545 43.0234 10.2872C43.5247 10.5198 43.6954 9.32014 44.5056 9.27104C45.3159 9.22194 45.6594 10.2253 45.9792 10.4451C46.2989 10.665 47.5953 10.2744 48.2349 10.6906C48.8723 11.1069 48.3861 13.312 48.6324 13.6024C48.8787 13.8948 49.9331 13.8948 50.5964 14.7508C51.2598 15.6069 50.4495 17.9017 50.5467 18.2496C50.644 18.5997 52.2904 18.2731 52.6577 18.9583C53.025 19.6436 52.4848 21.298 52.6577 21.5968C52.8305 21.8957 54.3019 21.0055 55.0149 21.5968C55.7279 22.1882 55.5054 24.3421 55.5054 24.3421C55.9591 25.5354 57.1107 24.8587 57.3138 25.0786C57.3138 25.0786 57.1453 27.4716 54.6822 30.1079C58.513 27.0083 58.742 23.755 58.742 23.755C58.5368 23.5373 57.3873 24.214 56.9336 23.0186L56.9357 23.0164Z" fill="#E3B49F" fill-opacity="0.2"/>
<path d="M32.0011 53.0325C14.4741 53.0325 0.216064 40.3822 0.216064 24.8309C0.216064 24.5918 0.222546 24.3527 0.229028 24.1158C0.231189 24.009 0.313293 23.9215 0.421324 23.9087C0.429967 23.9087 0.438609 23.9087 0.445091 23.9087C0.542319 23.9087 0.628745 23.9727 0.654672 24.0688C2.744 32.0291 16.1507 38.0319 31.839 38.0319H32.0011C35.1556 38.0319 38.228 37.7907 41.1362 37.3147L41.335 37.2826L41.3977 37.4897L41.3631 37.2784C53.7997 35.2525 62.5999 29.4098 63.2654 22.7431C63.2762 22.6343 63.3691 22.551 63.4815 22.551C63.5938 22.551 63.6867 22.6364 63.6954 22.7474C63.7558 23.4754 63.7839 24.1585 63.7839 24.8352C63.7839 40.3865 49.5259 53.0368 32.0011 53.0368V53.0325Z" fill="#BF5650"/>
<path d="M63.4793 22.7624C63.5355 23.4455 63.5679 24.135 63.5679 24.8309C63.5679 40.2883 49.4352 52.8191 31.9989 52.8191C14.5626 52.8191 0.432126 40.2883 0.432126 24.8309C0.432126 24.594 0.438608 24.357 0.44509 24.1201C2.53874 32.0953 15.7942 38.2433 31.839 38.2433C31.865 38.2433 31.8909 38.2433 31.9168 38.2433C31.9449 38.2433 31.973 38.2433 32.0011 38.2433C35.1902 38.2433 38.2691 37.9978 41.173 37.5218C41.2399 37.5111 41.3047 37.5004 41.3717 37.4897C41.3804 37.4897 41.389 37.4876 41.3998 37.4855C53.724 35.4767 62.7922 29.6895 63.4814 22.7603M63.4793 22.3354C63.2567 22.3354 63.0709 22.502 63.0493 22.7197C62.3946 29.2903 53.6657 35.0562 41.3264 37.0671H41.3112L41.2961 37.0713L41.1016 37.1034C38.2021 37.5773 35.1405 37.8185 31.9989 37.8185H31.96H31.9168H31.8736H31.8369C16.2436 37.8185 2.92765 31.884 0.862091 24.0155C0.812397 23.8255 0.639546 23.6953 0.44509 23.6953C0.427805 23.6953 0.41268 23.6953 0.395395 23.6974C0.181493 23.7209 0.017285 23.8981 0.0129638 24.1094C0.00648189 24.3378 0 24.5812 0 24.8309C0 32.4305 3.33385 39.5711 9.39009 44.9399C15.4312 50.2958 23.4623 53.246 32.0011 53.246C40.5399 53.246 48.5688 50.2958 54.6121 44.9399C60.6661 39.5711 64.0022 32.4305 64.0022 24.8309C64.0022 24.1499 63.9719 23.4604 63.9114 22.7261C63.8941 22.5062 63.7083 22.3354 63.4836 22.3333C63.4836 22.3333 63.4814 22.3333 63.4793 22.3333V22.3354Z" fill="black"/>
<path d="M3.88269 29.6596C3.93455 29.6916 3.9864 29.7215 4.03826 29.7514C3.9864 29.7023 3.93455 29.6511 3.88269 29.602V29.6596Z" fill="#AF4241"/>
<path d="M63.4793 22.7624C63.4793 22.7624 63.4771 22.7837 63.475 22.7923C63.1746 38.032 48.3549 50.3087 30.1127 50.3087C22.0795 50.3087 14.7139 47.9242 8.95581 43.9579C14.716 49.4099 22.9092 52.8191 31.9989 52.8191C49.433 52.8191 63.5679 40.2883 63.5679 24.8309C63.5679 24.135 63.5355 23.4455 63.4793 22.7624Z" fill="#AF4241"/>
<g clip-path="url(#clip1_1639_1732)">
<path d="M37.5127 45.9588C37.3834 45.9588 37.1168 45.9255 36.7791 45.7039C36.1587 45.2958 35.9783 42.898 36.6445 41.3651C36.8497 40.9847 37.084 40.9052 37.2445 40.9052C37.4841 40.9052 37.7211 41.0825 37.8628 41.3676C37.9769 41.5973 37.8983 42.0401 37.8224 42.4683C37.7502 42.8743 37.6689 43.3347 37.8342 43.368C37.8391 43.369 37.8445 43.3695 37.8504 43.3695C38.0836 43.3695 38.6276 42.6375 39.0245 42.1031C39.2841 41.7535 39.5081 41.4517 39.6347 41.3545C39.8302 41.2044 40.2358 41.082 40.5401 41.082C40.7113 41.082 40.8368 41.1203 40.9036 41.1933C40.951 41.2447 40.9682 41.3107 40.9553 41.3898C40.9203 41.6039 40.5492 41.9116 40.12 42.2678C39.6697 42.6411 39.1591 43.0647 39.1554 43.3267C39.1521 43.5655 39.6449 44.1946 40.0413 44.7004C40.5228 45.315 40.7135 45.5749 40.6591 45.6752C40.651 45.6898 40.6305 45.7145 40.5821 45.7145C40.5578 45.7145 40.5277 45.7084 40.4911 45.6953C40.3262 45.6384 40.1754 45.6107 40.03 45.6107C39.9008 45.6107 39.7957 45.6323 39.7031 45.6515C39.6277 45.6671 39.5625 45.6807 39.4968 45.6807C39.4478 45.6807 39.4031 45.6726 39.3611 45.6565C39.2388 45.6097 39.1301 45.3563 38.9626 44.9467C38.8074 44.5679 38.6146 44.0964 38.4455 44.0737C38.4137 44.0697 38.383 44.0672 38.3545 44.0672C38.18 44.0672 37.9392 44.1342 37.8665 44.714C37.8665 44.7206 37.8159 45.5764 37.8515 45.7427C37.8601 45.784 37.8488 45.8243 37.8186 45.859C37.7631 45.9225 37.6516 45.9588 37.5127 45.9588Z" fill="#BBDB51"/>
<path d="M37.245 40.9435C37.4793 40.9435 37.6996 41.1283 37.8267 41.3837C38.0583 41.8492 37.4432 43.3277 37.8267 43.4048C37.8348 43.4063 37.8429 43.4073 37.8509 43.4073C38.2554 43.4073 39.332 41.6371 39.6611 41.3837C39.8496 41.2386 40.2433 41.1198 40.5406 41.1198C40.7733 41.1198 40.9472 41.1928 40.916 41.3837C40.8449 41.8185 39.1225 42.8078 39.1155 43.3257C39.1085 43.8168 40.9392 45.6762 40.5826 45.6762C40.5632 45.6762 40.5379 45.6706 40.5056 45.6596C40.3155 45.5936 40.1609 45.5724 40.0306 45.5724C39.7941 45.5724 39.638 45.6424 39.4974 45.6424C39.4564 45.6424 39.4166 45.6364 39.3767 45.6213C39.1247 45.5241 38.7994 44.0828 38.4515 44.036C38.4181 44.0314 38.3857 44.0294 38.3545 44.0294C38.0642 44.0294 37.8865 44.2304 37.8267 44.71C37.8267 44.71 37.775 45.5774 37.8122 45.7507C37.8315 45.8414 37.7136 45.9215 37.5127 45.9215C37.3307 45.9215 37.0802 45.856 36.8028 45.6732C36.2196 45.2893 36.0187 42.9071 36.6822 41.3797C36.8508 41.0679 37.0527 40.9435 37.245 40.9435ZM37.245 40.8679C37.0732 40.8679 36.8233 40.951 36.61 41.3454L36.6084 41.348L36.6073 41.351C35.9357 42.8965 36.1253 45.32 36.756 45.7351C37.0129 45.9039 37.2816 45.9971 37.5127 45.9971C37.664 45.9971 37.7868 45.9558 37.8499 45.8837C37.8876 45.8404 37.9021 45.788 37.8913 45.7361C37.8628 45.6021 37.8929 44.9573 37.9069 44.7165C37.9753 44.1745 38.1816 44.105 38.3545 44.105C38.3814 44.105 38.41 44.107 38.4396 44.111C38.5856 44.1307 38.7897 44.6299 38.9249 44.9599C39.1015 45.3911 39.2076 45.6379 39.3455 45.6908C39.3929 45.7089 39.4419 45.718 39.4968 45.718C39.5669 45.718 39.6374 45.7034 39.7117 45.6878C39.8022 45.6691 39.9051 45.648 40.03 45.648C40.1711 45.648 40.3171 45.6747 40.4771 45.7301C40.5185 45.7442 40.553 45.7512 40.5821 45.7512C40.6333 45.7512 40.6747 45.7291 40.6952 45.6913C40.7604 45.5714 40.5864 45.3316 40.0737 44.6772C39.681 44.176 39.1925 43.5524 39.1958 43.3262C39.1995 43.0809 39.7026 42.6633 40.1469 42.295C40.5826 41.9338 40.9586 41.622 40.9957 41.3943C41.014 41.282 40.9726 41.2089 40.9349 41.1676C40.8589 41.085 40.7264 41.0432 40.5406 41.0432C40.2234 41.0432 39.8146 41.1666 39.6099 41.3243C39.4791 41.425 39.2534 41.7288 38.9922 42.0804C38.78 42.366 38.5392 42.69 38.3254 42.9353C38.0147 43.2919 37.8902 43.3302 37.8515 43.3302C37.8488 43.3302 37.8461 43.3302 37.8439 43.3297C37.7163 43.304 37.8046 42.8043 37.8633 42.4733C37.9403 42.0396 38.0195 41.5908 37.9005 41.351C37.7518 41.0523 37.5009 40.8669 37.2456 40.8669L37.245 40.8679Z" fill="black"/>
<g opacity="0.3">
<path d="M38.3533 43.2617C38.7368 43.3388 39.8517 41.4991 40.1877 41.2406C40.2395 41.2009 40.3062 41.1636 40.3822 41.1298C40.1156 41.1611 39.8172 41.2633 39.661 41.3837C39.4116 41.5756 38.733 42.6386 38.2429 43.1418C38.2618 43.2073 38.2962 43.2501 38.3533 43.2617Z" fill="#8DA440"/>
<path d="M39.7273 45.4948C39.4752 45.3986 39.2232 44.0279 38.8752 43.9815C38.677 43.9553 38.6275 43.9317 38.5198 44.0762C38.8418 44.2777 39.1413 45.5316 39.3772 45.6217C39.6293 45.718 39.87 45.4414 40.5055 45.66C40.6736 45.718 40.6456 45.6041 40.5055 45.4197C40.1436 45.4268 39.9023 45.5618 39.7273 45.4948Z" fill="#8DA440"/>
<path d="M37.8116 45.7487C37.6683 45.7139 37.5046 45.6454 37.3295 45.5301C36.7462 45.1462 36.5453 42.764 37.2089 41.2366C37.2692 41.1248 37.3338 41.0376 37.4012 40.9711C37.1669 40.8895 36.897 40.9817 36.6821 41.3797C36.0186 42.907 36.219 45.2898 36.8028 45.6731C37.3861 46.057 37.8493 45.924 37.8121 45.7507C37.8121 45.7502 37.8121 45.7492 37.8121 45.7487H37.8116Z" fill="#8DA440"/>
</g>
<path d="M38.935 47.3799C37.455 47.3799 35.5581 47.1426 35.2344 46.8253C34.9177 46.515 35.0276 44.504 35.0895 43.6542C35.1859 42.3369 35.3847 40.7944 35.5279 40.5984C35.6394 40.4458 35.9146 40.3546 36.2642 40.3546C36.6137 40.3546 37.0203 40.4544 37.0758 40.673L37.0769 40.678V40.6836C37.0726 40.7657 37.0338 40.9994 36.9794 41.3233C36.7828 42.4996 36.3223 45.2546 36.8216 45.6102C36.9476 45.6999 37.2525 45.7437 37.755 45.7437C38.1497 45.7437 38.6097 45.7175 39.0551 45.6918C39.4644 45.6682 39.8511 45.646 40.157 45.646C40.5938 45.646 40.784 45.6898 40.8109 45.7971C40.8335 45.8515 41.078 46.4686 40.7489 47.0464C40.5922 47.3215 39.6761 47.3789 38.9345 47.3789L38.935 47.3799Z" fill="#B1CAC8"/>
<path d="M36.2642 40.3929C36.625 40.3929 36.9897 40.4987 37.0371 40.6825C37.0182 41.078 36.1479 45.1775 36.7979 45.6415C36.9482 45.7488 37.3096 45.7825 37.7555 45.7825C38.5144 45.7825 39.5205 45.6848 40.1576 45.6848C40.512 45.6848 40.7527 45.715 40.7727 45.8092C40.7727 45.8092 41.0463 46.4464 40.714 47.0298C40.5874 47.2519 39.8398 47.3426 38.9356 47.3426C37.4631 47.3426 35.5732 47.1028 35.264 46.8001C34.7648 46.3109 35.3077 40.9687 35.5624 40.6206C35.6771 40.4639 35.9701 40.3934 36.2653 40.3934M36.2642 40.3173C35.9017 40.3173 35.6141 40.4145 35.4946 40.5778C35.3427 40.7853 35.145 42.3353 35.0491 43.6521C34.9716 44.7146 34.8886 46.5427 35.2048 46.852C35.563 47.2026 37.6187 47.4182 38.935 47.4182C39.6874 47.4182 40.6186 47.3572 40.7851 47.0656C41.1179 46.4812 40.8793 45.8586 40.8502 45.787C40.8163 45.6591 40.6203 45.6092 40.1576 45.6092C39.8506 45.6092 39.4628 45.6314 39.053 45.6551C38.6086 45.6807 38.1492 45.7069 37.7555 45.7069C37.2697 45.7069 36.9638 45.6646 36.8469 45.5815C36.7096 45.4833 36.5679 45.0989 36.6757 43.8244C36.7495 42.9519 36.9126 41.9762 37.0204 41.3304C37.0769 40.9934 37.1141 40.7707 37.1178 40.6866V40.676L37.1157 40.6654C37.0548 40.4266 36.6315 40.3178 36.2647 40.3178L36.2642 40.3173Z" fill="black"/>
<path opacity="0.3" d="M35.5397 46.5729C35.0609 46.1039 35.5408 41.1702 35.8053 40.4609C35.6992 40.4977 35.6119 40.5505 35.5613 40.6201C35.3071 40.9682 34.7642 46.3104 35.2629 46.7996C35.7622 47.2887 40.3805 47.6131 40.7128 47.0298C40.7263 47.0061 40.7387 46.9819 40.75 46.9582C39.7267 47.3159 35.9857 47.0101 35.5392 46.5729H35.5397Z" fill="#7D9391"/>
<path d="M32.8093 46.8056C31.3163 46.8056 30.2801 45.8636 30.1691 44.4063C30.1233 44.1282 29.7275 41.6538 29.9461 41.3636C30.0873 41.1762 30.524 41.0604 30.8472 41.0604C31.1316 41.0604 31.3018 41.1465 31.3131 41.2961L31.543 44.3146C31.605 45.1297 32.1069 45.6354 32.8518 45.6354C32.8895 45.6354 32.9288 45.6339 32.9676 45.6314C33.7803 45.577 34.244 45.0052 34.1778 44.1383C34.1643 44.0274 33.8417 41.3863 33.95 41.1047C33.9952 40.9868 34.1843 40.9294 34.5273 40.9294C34.8704 40.9294 35.2846 40.9934 35.2884 40.9939L35.3196 40.9989L35.5523 44.0466C35.6104 44.8083 35.4036 45.4717 34.9544 45.9649C34.5069 46.456 33.8509 46.7442 33.0565 46.7971C32.9735 46.8026 32.89 46.8056 32.8093 46.8056Z" fill="#9A7EB1"/>
<path d="M34.5273 40.9677C34.8833 40.9677 35.2813 41.0316 35.2813 41.0316L35.5113 44.0501C35.6281 45.586 34.6452 46.654 33.0532 46.7598C32.9702 46.7653 32.8889 46.7678 32.8087 46.7678C31.3459 46.7678 30.3199 45.8596 30.2089 44.4037C30.2089 44.4037 29.763 41.6714 29.9789 41.3853C30.1055 41.217 30.5208 41.0981 30.8471 41.0981C31.0766 41.0981 31.2618 41.1571 31.2726 41.2991C31.299 41.6432 31.5026 44.3176 31.5026 44.3176C31.5656 45.1407 32.073 45.6737 32.8517 45.6737C32.8905 45.6737 32.9298 45.6722 32.9702 45.6697C33.8158 45.6132 34.2838 45.0007 34.2176 44.1362C34.2176 44.1362 33.8815 41.3948 33.9876 41.1178C34.0323 41.0014 34.2682 40.9677 34.5267 40.9677M34.5273 40.8921C34.16 40.8921 33.9645 40.9556 33.9117 41.0926C33.8029 41.3772 34.1018 43.8531 34.1373 44.1433C34.2009 44.9856 33.7517 45.5417 32.9643 45.5941C32.9266 45.5966 32.8884 45.5981 32.8517 45.5981C32.13 45.5981 31.6437 45.1055 31.5834 44.312L31.3534 41.2936C31.3405 41.1213 31.1557 41.0226 30.8471 41.0226C30.5138 41.0226 30.0619 41.1445 29.9132 41.3419C29.8718 41.3974 29.7608 41.5439 29.9332 43.0104C30.0139 43.6985 30.1211 44.3619 30.1292 44.4123C30.2434 45.8893 31.2947 46.8439 32.8097 46.8439C32.8916 46.8439 32.9762 46.8409 33.0602 46.8353C33.8654 46.7814 34.531 46.4893 34.9861 45.99C35.4423 45.4893 35.6524 44.8168 35.5931 44.0446L35.3632 41.0261L35.3588 40.9671L35.2964 40.9571C35.2797 40.9546 34.8871 40.8921 34.5284 40.8921H34.5273Z" fill="black"/>
<g opacity="0.4">
<path d="M34.6205 43.895L34.39 41.0029C34.39 41.0029 34.1164 40.9097 33.9877 41.1178C33.859 41.3258 34.2177 44.1363 34.2177 44.1363C34.2564 44.645 34.1099 45.0662 33.811 45.3387C34.3765 45.1312 34.6738 44.5962 34.6205 43.895Z" fill="#82609E"/>
<path d="M33.4561 46.5185C31.864 46.6248 30.7287 45.6984 30.6118 44.1624C30.6118 44.1624 30.1874 41.5631 30.3668 41.1702C30.1939 41.221 30.0458 41.2966 29.979 41.3858C29.763 41.6719 30.2089 44.4042 30.2089 44.4042C30.3258 45.9402 31.4612 46.8666 33.0532 46.7603C33.6688 46.719 34.1923 46.5341 34.5979 46.2339C34.2677 46.392 33.8842 46.4903 33.4561 46.519V46.5185Z" fill="#82609E"/>
</g>
<path d="M27.1912 47.9622C26.225 47.9622 25.2609 47.7804 24.6749 47.4872C23.6349 46.9673 22.994 45.5377 23.043 43.8456C23.0899 42.2044 23.7674 40.8614 24.7681 40.4241C25.2038 40.2337 25.7322 40.1329 26.2961 40.1329C27.6592 40.1329 29.1813 40.7591 29.3003 42.1343C29.3708 42.9479 28.968 43.3987 28.5673 43.6441C28.5818 43.6441 28.5964 43.6441 28.6109 43.6441C29.4489 43.6441 30.8546 43.901 30.8546 45.6213C30.8546 47.3416 28.9621 47.9622 27.1912 47.9622Z" fill="#83B2E8"/>
<path d="M26.2961 40.1707C27.6835 40.1707 29.1447 40.8044 29.2599 42.1374C29.3327 42.9751 28.8964 43.4401 28.4128 43.6859C27.8192 43.7121 27.3324 43.8481 27.2677 43.8929C27.2327 43.9176 27.2952 43.9362 27.4164 43.9362C27.6329 43.9362 28.0374 43.8768 28.4128 43.6859C28.4774 43.6829 28.5436 43.6814 28.6104 43.6814C29.6154 43.6814 30.8138 44.034 30.8138 45.6208C30.8138 47.327 28.9476 47.9244 27.1907 47.9244C26.2089 47.9244 25.2615 47.7375 24.6938 47.4539C22.4485 46.3311 22.6111 41.4084 24.7854 40.4584C25.2211 40.2679 25.7527 40.1707 26.2961 40.1707ZM26.2961 40.0952C25.7263 40.0952 25.192 40.1969 24.7515 40.3898C23.7368 40.8331 23.0501 42.1892 23.0027 43.8446C22.9801 44.6355 23.1077 45.3911 23.3722 46.0288C23.6624 46.7295 24.1068 47.2454 24.6561 47.5204C25.2475 47.8161 26.2191 48 27.1912 48C28.1634 48 29.0644 47.8146 29.701 47.4786C30.482 47.066 30.8951 46.4238 30.8951 45.6213C30.8951 43.9237 29.5535 43.6244 28.6939 43.6073C29.0666 43.3438 29.4064 42.893 29.3407 42.1318C29.2196 40.7329 27.6776 40.0957 26.2961 40.0957V40.0952Z" fill="black"/>
<g opacity="0.3">
<path d="M28.9066 43.3056C28.91 43.3056 28.9135 43.3056 28.9169 43.3056C28.9192 43.3029 28.9221 43.2997 28.9244 43.2964C28.9186 43.2997 28.9123 43.3029 28.9066 43.3056Z" fill="#324BB2"/>
<path d="M25.1882 47.0731C23.196 46.0772 23.099 42.0925 24.62 40.541C22.6046 41.6628 22.5071 46.3603 24.6943 47.4539C25.9438 48.0786 29.031 48.2317 30.2783 46.9623C28.8436 47.8096 26.295 47.6262 25.1882 47.0726V47.0731Z" fill="#324BB2"/>
</g>
<path opacity="0.05" d="M28.4128 43.6859C28.8964 43.44 29.3327 42.9756 29.26 42.1373C29.0995 40.283 26.3339 39.7818 24.7854 40.4583C24.7327 40.4815 24.6815 40.5077 24.6309 40.5354C26.2105 40.0352 28.6589 40.5833 28.8103 42.3247C28.883 43.163 28.4467 43.6274 27.9631 43.8733C29.0009 43.8269 30.3646 44.1156 30.3646 45.8082C30.3646 46.6872 29.8691 47.2716 29.1485 47.6322C30.1045 47.3033 30.8149 46.6736 30.8149 45.6213C30.8149 43.9287 29.4512 43.6405 28.4133 43.6864L28.4128 43.6859Z" fill="#C2CBFF"/>
</g>
</g>
<defs>
<clipPath id="clip0_1639_1732">
<rect width="64" height="58" fill="white"/>
</clipPath>
<clipPath id="clip1_1639_1732">
<rect width="18" height="9" fill="white" transform="translate(23 39)"/>
</clipPath>
</defs>
</svg>
