<svg width="127" height="154" viewBox="0 0 127 154" fill="none" xmlns="http://www.w3.org/2000/svg">
<g clip-path="url(#clip0_432_961)">
<path d="M67.4203 153.354C51.8778 153.354 36.3699 150.242 26.9439 145.225C10.2144 136.33 -0.0952942 111.867 0.693095 82.9131C1.44683 54.8301 12.3457 31.8499 28.4427 24.3679C35.4515 21.1097 43.9506 19.3857 53.0214 19.3857C74.949 19.3857 99.4324 30.1001 101.347 53.6319C102.482 67.5528 96.0016 75.2674 89.5558 79.4652C89.7898 79.4652 90.0237 79.4652 90.2576 79.4652C103.738 79.4652 126.35 83.8613 126.35 113.298C126.35 142.734 95.9063 153.362 67.4203 153.362V153.354Z" fill="#B1CAC8"/>
<path d="M53.0214 20.0322C75.3389 20.0322 98.8433 30.8758 100.697 53.6836C101.867 68.0182 94.8494 75.9742 87.0694 80.1807C77.5221 80.6289 69.6902 82.9562 68.6506 83.7234C68.0874 84.1457 69.0924 84.4647 71.0417 84.4647C74.5245 84.4647 81.0309 83.4475 87.0694 80.1807C88.1091 80.1289 89.1747 80.1031 90.249 80.1031C106.415 80.1031 125.692 86.1369 125.692 113.289C125.692 142.484 95.6724 152.707 67.4117 152.707C51.6179 152.707 36.3786 149.509 27.2471 144.656C-8.87149 125.443 -6.25508 41.2109 28.72 24.9541C35.7288 21.6958 44.2798 20.0322 53.0214 20.0322ZM53.0214 18.7393C43.8553 18.7393 35.261 20.4804 28.1741 23.7818C11.8519 31.3672 0.805771 54.5715 0.0433724 82.8959C-0.3205 96.4288 1.73278 109.358 5.98662 120.271C10.6563 132.261 17.8038 141.088 26.6407 145.794C36.1533 150.854 51.7825 154 67.4203 154C83.0582 154 97.5524 150.828 107.793 145.079C120.355 138.019 127 127.029 127 113.298C127 84.2492 105.419 79.129 91.5918 78.836C97.5871 74.3279 103.054 66.6132 101.997 53.5888C100.048 29.6518 75.2436 18.7479 53.0214 18.7479V18.7393Z" fill="black"/>
<g opacity="0.3">
<path d="M95.014 73.664C95.066 73.664 95.118 73.664 95.17 73.664C95.2046 73.621 95.248 73.5693 95.2826 73.5176C95.196 73.5693 95.1007 73.621 95.014 73.664Z" fill="#324BB2"/>
<path d="M35.2004 138.14C3.15363 121.099 1.59418 52.9165 26.0602 26.3677C-6.35902 45.5639 -7.92714 125.943 27.2558 144.656C47.3554 155.345 97.0153 157.965 117.08 136.243C94.0004 150.742 53.0041 147.604 35.2004 138.131V138.14Z" fill="#324BB2"/>
</g>
<path opacity="0.05" d="M87.0695 80.1807C94.8494 75.9742 101.867 68.0268 100.697 53.6836C98.1156 21.9544 53.6279 13.3778 28.72 24.9541C27.8709 25.3506 27.0479 25.7988 26.2335 26.2729C51.6439 17.7135 91.0287 27.0918 93.4632 56.8902C94.6328 71.2334 87.6153 79.1808 79.8353 83.3872C96.5301 82.5942 118.466 87.5333 118.466 116.496C118.466 131.537 110.496 141.536 98.904 147.708C114.282 142.079 125.709 131.304 125.709 113.298C125.709 84.3354 103.773 79.4049 87.0781 80.1893L87.0695 80.1807Z" fill="#C2CBFF"/>
<path d="M38.631 32.4619C29.361 32.4619 21.8149 25.6351 21.8149 17.2309C21.8149 8.82662 29.361 2.00842 38.631 2.00842C47.9011 2.00842 55.4471 8.83524 55.4471 17.2395C55.4471 25.6437 47.9011 32.4705 38.631 32.4705V32.4619Z" fill="white"/>
<path d="M38.6311 2.87037C47.442 2.87037 54.5808 9.30068 54.5808 17.2394C54.5808 25.1782 47.442 31.6085 38.6311 31.6085C29.8202 31.6085 22.6813 25.1782 22.6813 17.2394C22.6813 9.30068 29.8288 2.87037 38.6311 2.87037ZM38.6311 1.14642C28.8845 1.14642 20.9486 8.36113 20.9486 17.2394C20.9486 26.1178 28.8758 33.3325 38.6311 33.3325C48.3863 33.3325 56.3135 26.1178 56.3135 17.2394C56.3135 8.36113 48.3776 1.14642 38.6311 1.14642Z" fill="#111111"/>
<path d="M35.0357 23.9715C41.0741 23.9715 45.9691 19.5604 45.9691 14.1191C45.9691 8.67783 41.0741 4.26678 35.0357 4.26678C28.9973 4.26678 24.1022 8.67783 24.1022 14.1191C24.1022 19.5604 28.9973 23.9715 35.0357 23.9715Z" fill="black"/>
<g opacity="0.6">
<path d="M50.145 7.30951C50.6822 8.749 50.9854 10.2919 50.9854 11.8952C50.9854 19.8254 43.8466 26.2643 35.0357 26.2643C30.5046 26.2643 26.424 24.549 23.5217 21.8165C25.6443 27.4969 31.5962 31.5999 38.6224 31.5999C47.4333 31.5999 54.5721 25.1696 54.5721 17.2308C54.5721 13.3778 52.8827 9.88681 50.145 7.30951Z" fill="#EFEFEF"/>
</g>
<path d="M56.2616 60.9156C56.2616 61.4069 66.0168 61.812 78.0506 61.812C90.0844 61.812 99.8396 61.4155 99.8396 60.9156" stroke="black" stroke-width="2" stroke-linecap="round" stroke-linejoin="round"/>
<path d="M51.4099 54.1146C57.3878 57.8901 58.2282 62.4844 51.7305 68.2682" stroke="black" stroke-width="2" stroke-linecap="round" stroke-linejoin="round"/>
<path d="M76.2138 31.3155C66.9437 31.3155 59.3977 24.4887 59.3977 16.0844C59.3977 7.6802 66.9437 0.862 76.2138 0.862C85.4839 0.862 93.0299 7.68882 93.0299 16.0931C93.0299 24.4973 85.4839 31.3241 76.2138 31.3241V31.3155Z" fill="white"/>
<path d="M76.2138 1.72394C85.0247 1.72394 92.1635 8.15426 92.1635 16.093C92.1635 24.0318 85.0247 30.4621 76.2138 30.4621C67.4029 30.4621 60.2641 24.0318 60.2641 16.093C60.2641 8.15426 67.4029 1.72394 76.2138 1.72394ZM76.2138 0C66.4673 0 58.5314 7.21471 58.5314 16.093C58.5314 24.9713 66.4586 32.186 76.2138 32.186C85.9691 32.186 93.8963 24.9713 93.8963 16.093C93.8963 7.21471 85.9604 0 76.2138 0Z" fill="#111111"/>
<path d="M73.2075 23.9025C79.5761 23.9025 84.7388 19.2522 84.7388 13.5157C84.7388 7.77928 79.5761 3.12897 73.2075 3.12897C66.839 3.12897 61.6763 7.77928 61.6763 13.5157C61.6763 19.2522 66.839 23.9025 73.2075 23.9025Z" fill="black"/>
<g opacity="0.6">
<path d="M87.7278 6.17175C88.2649 7.61125 88.5682 9.15418 88.5682 10.7574C88.5682 18.6876 81.4293 25.1265 72.6184 25.1265C68.0874 25.1265 64.0068 23.4198 61.1045 20.6788C63.2271 26.3591 69.179 30.4621 76.2052 30.4621C85.0161 30.4621 92.1549 24.0318 92.1549 16.0931C92.1549 12.24 90.4655 8.74905 87.7278 6.17175Z" fill="#EFEFEF"/>
</g>
</g>
<defs>
<clipPath id="clip0_432_961">
<rect width="127" height="154" fill="white"/>
</clipPath>
</defs>
</svg>
