<svg width="335" height="179" viewBox="0 0 335 179" fill="none" xmlns="http://www.w3.org/2000/svg">
<g clip-path="url(#clip0_859_971)">
<path d="M269.46 138.14C267.06 138.14 262.11 137.48 255.84 133.08C244.32 124.98 240.97 77.3801 253.34 46.9501C257.15 39.4001 261.5 37.8201 264.48 37.8201C268.93 37.8201 273.33 41.3401 275.96 47.0001C278.08 51.5601 276.62 60.3501 275.21 68.8501C273.87 76.9101 272.36 86.0501 275.43 86.7101C275.52 86.7301 275.62 86.7401 275.73 86.7401C280.06 86.7401 290.16 72.2101 297.53 61.6001C302.35 54.6601 306.51 48.6701 308.86 46.7401C312.49 43.7601 320.02 41.3301 325.67 41.3301C328.85 41.3301 331.18 42.0901 332.42 43.5401C333.3 44.5601 333.62 45.8701 333.38 47.4401C332.73 51.6901 325.84 57.8001 317.87 64.8701C309.51 72.2801 300.03 80.6901 299.96 85.8901C299.9 90.6301 309.05 103.12 316.41 113.16C325.35 125.36 328.89 130.52 327.88 132.51C327.73 132.8 327.35 133.29 326.45 133.29C326 133.29 325.44 133.17 324.76 132.91C321.7 131.78 318.9 131.23 316.2 131.23C313.8 131.23 311.85 131.66 310.13 132.04C308.73 132.35 307.52 132.62 306.3 132.62C305.39 132.62 304.56 132.46 303.78 132.14C301.51 131.21 299.49 126.18 296.38 118.05C293.5 110.53 289.92 101.17 286.78 100.72C286.19 100.64 285.62 100.59 285.09 100.59C281.85 100.59 277.38 101.92 276.03 113.43C276.03 113.56 275.09 130.55 275.75 133.85C275.91 134.67 275.7 135.47 275.14 136.16C274.11 137.42 272.04 138.14 269.46 138.14Z" fill="#BBDB51"/>
<path d="M264.49 38.5801C268.84 38.5801 272.93 42.2501 275.29 47.3201C279.59 56.5601 268.17 85.9101 275.29 87.4401C275.44 87.4701 275.59 87.4901 275.74 87.4901C283.25 87.4901 303.24 52.3501 309.35 47.3201C312.85 44.4401 320.16 42.0801 325.68 42.0801C330 42.0801 333.23 43.5301 332.65 47.3201C331.33 55.9501 299.35 75.5901 299.22 85.8701C299.09 95.6201 333.08 132.53 326.46 132.53C326.1 132.53 325.63 132.42 325.03 132.2C321.5 130.89 318.63 130.47 316.21 130.47C311.82 130.47 308.92 131.86 306.31 131.86C305.55 131.86 304.81 131.74 304.07 131.44C299.39 129.51 293.35 100.9 286.89 99.9701C286.27 99.8801 285.67 99.8401 285.09 99.8401C279.7 99.8401 276.4 103.83 275.29 113.35C275.29 113.35 274.33 130.57 275.02 134.01C275.38 135.81 273.19 137.4 269.46 137.4C266.08 137.4 261.43 136.1 256.28 132.47C245.45 124.85 241.72 77.5601 254.04 47.2401C257.17 41.0501 260.92 38.5801 264.49 38.5801ZM264.49 37.0801C261.3 37.0801 256.66 38.7301 252.7 46.5601L252.67 46.6101L252.65 46.6701C240.18 77.3501 243.7 125.46 255.41 133.7C260.18 137.05 265.17 138.9 269.46 138.9C272.27 138.9 274.55 138.08 275.72 136.65C276.42 135.79 276.69 134.75 276.49 133.72C275.96 131.06 276.52 118.26 276.78 113.48C278.05 102.72 281.88 101.34 285.09 101.34C285.59 101.34 286.12 101.38 286.67 101.46C289.38 101.85 293.17 111.76 295.68 118.31C298.96 126.87 300.93 131.77 303.49 132.82C304.37 133.18 305.28 133.36 306.3 133.36C307.6 133.36 308.91 133.07 310.29 132.76C311.97 132.39 313.88 131.97 316.2 131.97C318.82 131.97 321.53 132.5 324.5 133.6C325.27 133.88 325.91 134.02 326.45 134.02C327.4 134.02 328.17 133.58 328.55 132.83C329.76 130.45 326.53 125.69 317.01 112.7C309.72 102.75 300.65 90.3701 300.71 85.8801C300.78 81.0101 310.12 72.7201 318.37 65.4101C326.46 58.2401 333.44 52.0501 334.13 47.5301C334.47 45.3001 333.7 43.8501 333 43.0301C331.59 41.3901 329.13 40.5601 325.68 40.5601C319.79 40.5601 312.2 43.0101 308.4 46.1401C305.97 48.1401 301.78 54.1701 296.93 61.1501C292.99 66.8201 288.52 73.2501 284.55 78.1201C278.78 85.2001 276.47 85.9601 275.75 85.9601C275.7 85.9601 275.65 85.9601 275.61 85.9501C273.24 85.4401 274.88 75.5201 275.97 68.9501C277.4 60.3401 278.87 51.4301 276.66 46.6701C273.9 40.7401 269.24 37.0601 264.5 37.0601L264.49 37.0801Z" fill="black"/>
<g opacity="0.3">
<path d="M285.07 84.6C292.19 86.13 312.89 49.61 319.13 44.48C320.09 43.69 321.33 42.95 322.74 42.28C317.79 42.9 312.25 44.93 309.35 47.32C304.72 51.13 292.12 72.23 283.02 82.22C283.37 83.52 284.01 84.37 285.07 84.6Z" fill="#2136B5"/>
<path d="M310.58 128.93C305.9 127.02 301.22 99.8102 294.76 98.8902C291.08 98.3702 290.16 97.9001 288.16 100.77C294.14 104.77 299.7 129.66 304.08 131.45C308.76 133.36 313.23 127.87 325.03 132.21C328.15 133.36 327.63 131.1 325.03 127.44C318.31 127.58 313.83 130.26 310.58 128.93Z" fill="#2136B5"/>
<path d="M275.01 133.97C272.35 133.28 269.31 131.92 266.06 129.63C255.23 122.01 251.5 74.7201 263.82 44.4001C264.94 42.1801 266.14 40.4501 267.39 39.1301C263.04 37.5101 258.03 39.3401 254.04 47.2401C241.72 77.5601 245.44 124.86 256.28 132.47C267.11 140.09 275.71 137.45 275.02 134.01C275.02 134 275.02 133.98 275.02 133.97H275.01Z" fill="#2136B5"/>
</g>
<path d="M295.87 166.35C268.39 166.35 233.17 161.64 227.16 155.34C221.28 149.18 223.32 109.26 224.47 92.3899C226.26 66.2399 229.95 35.6199 232.61 31.7299C234.68 28.6999 239.79 26.8899 246.28 26.8899C252.77 26.8899 260.32 28.8699 261.35 33.2099L261.37 33.3099V33.4199C261.29 35.0499 260.57 39.6899 259.56 46.1199C255.91 69.4699 247.36 124.16 256.63 131.22C258.97 133 264.63 133.87 273.96 133.87C281.29 133.87 289.83 133.35 298.1 132.84C305.7 132.37 312.88 131.93 318.56 131.93C326.67 131.93 330.2 132.8 330.7 134.93C331.12 136.01 335.66 148.26 329.55 159.73C326.64 165.19 309.63 166.33 295.86 166.33L295.87 166.35Z" fill="#B1CAC8"/>
<path d="M246.28 27.6499C252.98 27.6499 259.75 29.7499 260.63 33.3999C260.28 41.2499 244.12 122.63 256.19 131.84C258.98 133.97 265.69 134.64 273.97 134.64C288.06 134.64 306.74 132.7 318.57 132.7C325.15 132.7 329.62 133.3 329.99 135.17C329.99 135.17 335.07 147.82 328.9 159.4C326.55 163.81 312.67 165.61 295.88 165.61C268.54 165.61 233.45 160.85 227.71 154.84C218.44 145.13 228.52 39.0799 233.25 32.1699C235.38 29.0599 240.82 27.6599 246.3 27.6599M246.28 26.1499C239.55 26.1499 234.21 28.0799 231.99 31.3199C229.17 35.4399 225.5 66.2099 223.72 92.3499C222.28 113.44 220.74 149.73 226.61 155.87C233.26 162.83 271.43 167.11 295.87 167.11C309.84 167.11 327.13 165.9 330.22 160.11C336.4 148.51 331.97 136.15 331.43 134.73C330.8 132.19 327.16 131.2 318.57 131.2C312.87 131.2 305.67 131.64 298.06 132.11C289.81 132.62 281.28 133.14 273.97 133.14C264.95 133.14 259.27 132.3 257.1 130.65C254.55 128.7 251.92 121.07 253.92 95.7699C255.29 78.4499 258.32 59.0799 260.32 46.2599C261.37 39.5699 262.06 35.1499 262.13 33.4799V33.2699L262.09 33.0599C260.96 28.3199 253.1 26.1599 246.29 26.1599L246.28 26.1499Z" fill="black"/>
<path opacity="0.3" d="M232.83 150.33C223.94 141.02 232.85 43.08 237.76 29C235.79 29.73 234.17 30.78 233.23 32.16C228.51 39.07 218.43 145.12 227.69 154.83C236.96 164.54 322.71 170.98 328.88 159.4C329.13 158.93 329.36 158.45 329.57 157.98C310.57 165.08 241.11 159.01 232.82 150.33H232.83Z" fill="#3448BF"/>
<path d="M182.13 154.95C154.41 154.95 135.17 136.25 133.11 107.32C132.26 101.8 124.91 52.68 128.97 46.92C131.59 43.2 139.7 40.9001 145.7 40.9001C150.98 40.9001 154.14 42.6101 154.35 45.5801L158.62 105.5C159.77 121.68 169.09 131.72 182.92 131.72C183.62 131.72 184.35 131.69 185.07 131.64C200.16 130.56 208.77 119.21 207.54 102C207.29 99.8 201.3 47.37 203.31 41.78C204.15 39.44 207.66 38.3 214.03 38.3C220.4 38.3 228.09 39.5701 228.16 39.5801L228.74 39.68L233.06 100.18C234.14 115.3 230.3 128.47 221.96 138.26C213.65 148.01 201.47 153.73 186.72 154.78C185.18 154.89 183.63 154.95 182.13 154.95Z" fill="#9A7EB1"/>
<path d="M214.03 39.0601C220.64 39.0601 228.03 40.3301 228.03 40.3301L232.3 100.25C234.47 130.74 216.22 151.94 186.66 154.04C185.12 154.15 183.61 154.2 182.12 154.2C154.96 154.2 135.91 136.17 133.85 107.27C133.85 107.27 125.57 53.0301 129.58 47.3501C131.93 44.0101 139.64 41.6501 145.7 41.6501C149.96 41.6501 153.4 42.8201 153.6 45.6401C154.09 52.4701 157.87 105.56 157.87 105.56C159.04 121.9 168.46 132.48 182.92 132.48C183.64 132.48 184.37 132.45 185.12 132.4C200.82 131.28 209.51 119.12 208.28 101.96C208.28 101.96 202.04 47.5401 204.01 42.0401C204.84 39.7301 209.22 39.0601 214.02 39.0601M214.03 37.5601C207.21 37.5601 203.58 38.8201 202.6 41.5401C200.58 47.1901 206.13 96.34 206.79 102.1C207.97 118.82 199.63 129.86 185.01 130.9C184.31 130.95 183.6 130.98 182.92 130.98C169.52 130.98 160.49 121.2 159.37 105.45L155.1 45.5301C154.86 42.1101 151.43 40.1501 145.7 40.1501C139.51 40.1501 131.12 42.5701 128.36 46.4901C127.59 47.5901 125.53 50.5001 128.73 79.6101C130.23 93.2701 132.22 106.44 132.37 107.44C134.49 136.76 154.01 155.71 182.14 155.71C183.66 155.71 185.23 155.65 186.79 155.54C201.74 154.47 214.1 148.67 222.55 138.76C231.02 128.82 234.92 115.47 233.82 100.14L229.55 40.2201L229.47 39.0501L228.31 38.8501C228 38.8001 220.71 37.5601 214.05 37.5601H214.03Z" fill="black"/>
<g opacity="0.4">
<path d="M215.76 97.17L211.48 39.76C211.48 39.76 206.4 37.91 204.01 42.04C201.62 46.17 208.28 101.96 208.28 101.96C209 112.06 206.28 120.42 200.73 125.83C211.23 121.71 216.75 111.09 215.76 97.17Z" fill="#324BB2"/>
<path d="M194.14 149.25C164.58 151.36 143.5 132.97 141.33 102.48C141.33 102.48 133.45 50.8801 136.78 43.0801C133.57 44.0901 130.82 45.5901 129.58 47.3601C125.57 53.0401 133.85 107.28 133.85 107.28C136.02 137.77 157.1 156.16 186.66 154.05C198.09 153.23 207.81 149.56 215.34 143.6C209.21 146.74 202.09 148.69 194.14 149.26V149.25Z" fill="#324BB2"/>
</g>
<path d="M77.8199 177.91C59.8799 177.91 41.9799 174.3 31.0999 168.48C11.7899 158.16 -0.110051 129.78 0.799949 96.19C1.66995 63.61 14.25 36.95 32.83 28.27C40.92 24.49 50.7299 22.49 61.2 22.49C86.5099 22.49 114.77 34.92 116.98 62.22C118.29 78.37 110.81 87.32 103.37 92.19C103.64 92.19 103.91 92.19 104.18 92.19C119.74 92.19 145.84 97.29 145.84 131.44C145.84 165.59 110.7 177.92 77.8199 177.92V177.91Z" fill="#83B2E8"/>
<path d="M61.2 23.24C86.96 23.24 114.09 35.82 116.23 62.28C117.58 78.91 109.48 88.14 100.5 93.02C89.48 93.54 80.44 96.24 79.24 97.13C78.59 97.62 79.75 97.99 82 97.99C86.02 97.99 93.53 96.81 100.5 93.02C101.7 92.96 102.93 92.93 104.17 92.93C122.83 92.93 145.08 99.93 145.08 131.43C145.08 165.3 110.43 177.16 77.81 177.16C59.58 177.16 41.99 173.45 31.45 167.82C-10.24 145.53 -7.22003 47.81 33.15 28.95C41.24 25.17 51.11 23.24 61.2 23.24ZM61.2 21.74C50.62 21.74 40.7 23.76 32.52 27.59C13.68 36.39 0.929968 63.31 0.0499679 96.17C-0.370032 111.87 1.99997 126.87 6.90997 139.53C12.3 153.44 20.55 163.68 30.75 169.14C41.73 175.01 59.77 178.66 77.82 178.66C95.87 178.66 112.6 174.98 124.42 168.31C138.92 160.12 146.59 147.37 146.59 131.44C146.59 97.74 121.68 91.8 105.72 91.46C112.64 86.23 118.95 77.28 117.73 62.17C115.48 34.4 86.85 21.75 61.2 21.75V21.74Z" fill="black"/>
<g opacity="0.3">
<path d="M109.67 85.46C109.73 85.46 109.79 85.46 109.85 85.46C109.89 85.41 109.94 85.35 109.98 85.29C109.88 85.35 109.77 85.41 109.67 85.46Z" fill="#324BB2"/>
<path d="M40.63 160.26C3.64001 140.49 1.84002 61.3901 30.08 30.5901C-7.33998 52.8601 -9.14998 146.11 31.46 167.82C54.66 180.22 111.98 183.26 135.14 158.06C108.5 174.88 61.18 171.24 40.63 160.25V160.26Z" fill="#324BB2"/>
</g>
<path opacity="0.05" d="M100.5 93.0201C109.48 88.1401 117.58 78.9201 116.23 62.2801C113.25 25.4701 61.9 15.5201 33.15 28.9501C32.17 29.4101 31.22 29.9301 30.28 30.4801C59.61 20.5501 105.07 31.4301 107.88 66.0001C109.23 82.6401 101.13 91.8601 92.15 96.7401C111.42 95.8201 136.74 101.55 136.74 135.15C136.74 152.6 127.54 164.2 114.16 171.36C131.91 164.83 145.1 152.33 145.1 131.44C145.1 97.8401 119.78 92.1201 100.51 93.0301L100.5 93.0201Z" fill="#C2CBFF"/>
<path d="M64.9402 70.6699C64.9402 71.2399 76.2002 71.7099 90.0902 71.7099C103.98 71.7099 115.24 71.2499 115.24 70.6699" stroke="black" stroke-width="2" stroke-linecap="round" stroke-linejoin="round"/>
<path d="M59.3401 62.78C66.2401 67.16 67.2101 72.49 59.7101 79.2" stroke="black" stroke-width="2" stroke-linecap="round" stroke-linejoin="round"/>
<path d="M44.5899 37.6601C33.8899 37.6601 25.1799 29.7401 25.1799 19.9901C25.1799 10.2401 33.8899 2.33008 44.5899 2.33008C55.2899 2.33008 63.9999 10.2501 63.9999 20.0001C63.9999 29.7501 55.2899 37.6701 44.5899 37.6701V37.6601Z" fill="white"/>
<path d="M44.5899 3.33008C54.7599 3.33008 62.9999 10.7901 62.9999 20.0001C62.9999 29.2101 54.7599 36.6701 44.5899 36.6701C34.4199 36.6701 26.1799 29.2101 26.1799 20.0001C26.1799 10.7901 34.4299 3.33008 44.5899 3.33008ZM44.5899 1.33008C33.3399 1.33008 24.1799 9.70008 24.1799 20.0001C24.1799 30.3001 33.3299 38.6701 44.5899 38.6701C55.8499 38.6701 64.9999 30.3001 64.9999 20.0001C64.9999 9.70008 55.8399 1.33008 44.5899 1.33008Z" fill="#111111"/>
<path d="M40.4398 27.8102C47.4097 27.8102 53.0598 22.6928 53.0598 16.3802C53.0598 10.0676 47.4097 4.9502 40.4398 4.9502C33.47 4.9502 27.8198 10.0676 27.8198 16.3802C27.8198 22.6928 33.47 27.8102 40.4398 27.8102Z" fill="black"/>
<g opacity="0.6">
<path d="M57.8799 8.47998C58.4999 10.15 58.8499 11.94 58.8499 13.8C58.8499 23 50.6099 30.47 40.4399 30.47C35.2099 30.47 30.4999 28.48 27.1499 25.31C29.5999 31.9 36.4699 36.66 44.5799 36.66C54.7499 36.66 62.9899 29.2 62.9899 19.99C62.9899 15.52 61.0399 11.47 57.8799 8.47998Z" fill="#EFEFEF"/>
</g>
<path d="M87.9701 36.33C77.2701 36.33 68.5601 28.41 68.5601 18.66C68.5601 8.91 77.2701 1 87.9701 1C98.6701 1 107.38 8.92 107.38 18.67C107.38 28.42 98.6701 36.34 87.9701 36.34V36.33Z" fill="white"/>
<path d="M87.9701 2C98.1401 2 106.38 9.46 106.38 18.67C106.38 27.88 98.1401 35.34 87.9701 35.34C77.8001 35.34 69.5601 27.88 69.5601 18.67C69.5601 9.46 77.8001 2 87.9701 2ZM87.9701 0C76.7201 0 67.5601 8.37 67.5601 18.67C67.5601 28.97 76.7101 37.34 87.9701 37.34C99.2301 37.34 108.38 28.97 108.38 18.67C108.38 8.37 99.2201 0 87.9701 0Z" fill="#111111"/>
<path d="M84.4999 27.7299C91.8508 27.7299 97.8099 22.3349 97.8099 15.6799C97.8099 9.02485 91.8508 3.62988 84.4999 3.62988C77.149 3.62988 71.1899 9.02485 71.1899 15.6799C71.1899 22.3349 77.149 27.7299 84.4999 27.7299Z" fill="black"/>
<g opacity="0.6">
<path d="M101.26 7.15991C101.88 8.82991 102.23 10.6199 102.23 12.4799C102.23 21.6799 93.99 29.1499 83.82 29.1499C78.59 29.1499 73.88 27.1699 70.53 23.9899C72.98 30.5799 79.85 35.3399 87.96 35.3399C98.13 35.3399 106.37 27.8799 106.37 18.6699C106.37 14.1999 104.42 10.1499 101.26 7.15991Z" fill="#EFEFEF"/>
</g>
</g>
<defs>
<clipPath id="clip0_859_971">
<rect width="334.21" height="178.66" fill="white"/>
</clipPath>
</defs>
</svg>
