<svg width="55" height="55" viewBox="0 0 55 55" fill="none" xmlns="http://www.w3.org/2000/svg">
<g clip-path="url(#clip0_1519_4398)">
<path d="M7.68239 54.6044C7.50312 54.6044 7.34757 54.4831 7.30012 54.3117L0.40864 28.6288C0.377004 28.5102 0.400731 28.3836 0.477186 28.286C0.551004 28.1884 0.667005 28.1304 0.790914 28.1304H54.1089C54.2328 28.1304 54.3488 28.1884 54.4226 28.286C54.4965 28.3836 54.5228 28.5102 54.4912 28.6288L47.5997 54.3117C47.5523 54.4857 47.3967 54.6044 47.2174 54.6044H7.68239Z" fill="#543924"/>
<path d="M54.109 28.526L47.2175 54.2088H7.68244L0.790962 28.526H54.109ZM54.1116 27.7348H0.790962C0.545779 27.7348 0.313778 27.8482 0.163505 28.0433C0.013232 28.2385 -0.0368591 28.4917 0.0264138 28.729L6.91789 54.4119C7.01016 54.7574 7.32389 54.9974 7.68244 54.9974H47.2175C47.576 54.9974 47.8898 54.7574 47.982 54.4119L54.8656 28.7633C54.8893 28.6868 54.9025 28.6077 54.9025 28.5233C54.9025 28.0855 54.5492 27.7321 54.1116 27.7321V27.7348Z" fill="black"/>
<path d="M0.790981 28.1857C0.645981 28.1857 0.527344 28.067 0.527344 27.922V27.8877C0.527344 21.3575 5.72363 15.8111 12.6573 14.888C12.5914 14.4001 12.5571 13.9201 12.5571 13.4559C12.5597 6.18202 19.8572 0.263733 28.8288 0.263733C37.8004 0.263733 44.6523 5.75477 45.0768 12.7992C51.0402 15.2045 54.7364 19.9439 54.7364 25.1976C54.7364 26.1365 54.6152 27.0754 54.3779 27.9905C54.3489 28.1066 54.2434 28.1884 54.1222 28.1884H0.790981V28.1857Z" fill="#BCC9A1"/>
<path d="M28.8288 0.527477C37.4734 0.527477 44.5125 6.06071 44.821 12.9812C50.5446 15.2362 54.4701 19.8595 54.4701 25.1976C54.4701 26.1312 54.3488 27.0411 54.1221 27.922H0.790946C0.790946 27.922 0.790946 27.8982 0.790946 27.8877C0.790946 21.3206 6.1006 15.9061 12.9578 15.1148C12.8708 14.5715 12.8207 14.0177 12.8207 13.4533C12.8207 6.3139 19.9864 0.524839 28.8288 0.524839M28.8288 0C19.7122 0 12.2934 6.03697 12.2934 13.4559C12.2934 13.8489 12.3172 14.2524 12.362 14.6639C5.42833 15.7083 0.263672 21.3074 0.263672 27.8877C0.263672 27.9009 0.263672 27.9141 0.263672 27.9273C0.263672 28.2174 0.500945 28.4495 0.790946 28.4495H54.1221C54.362 28.4495 54.5729 28.2859 54.6336 28.0539C54.8761 27.1176 55 26.1549 55 25.1949C55 19.8753 51.3038 15.0806 45.3298 12.6146C45.0741 9.23612 43.2893 6.09499 40.2759 3.74245C37.1861 1.32924 33.1208 0 28.8288 0Z" fill="black"/>
<path d="M27.4816 27.922H49.5612C49.751 27.194 49.8512 26.4371 49.8512 25.667C49.8512 21.2467 46.6006 17.4199 41.863 15.5553C41.6073 9.82686 35.7783 5.24573 28.6231 5.24573C21.468 5.24573 15.3727 10.0379 15.3727 15.9482C15.3727 16.415 15.4149 16.874 15.4861 17.3223C9.80736 17.979 5.41516 22.4599 5.41516 27.8956C5.41516 27.9061 5.41516 27.914 5.41516 27.9246H27.4842L27.4816 27.922Z" fill="#A4AF89"/>
<g clip-path="url(#clip1_1519_4398)">
<path d="M38.7903 44.6777C38.5334 44.6777 38.0034 44.6067 37.3321 44.1335C36.0987 43.2622 35.74 38.1423 37.0644 34.8692C37.4723 34.0572 37.9381 33.8872 38.2571 33.8872C38.7336 33.8872 39.2047 34.2658 39.4863 34.8746C39.7133 35.3651 39.5569 36.3106 39.406 37.2248C39.2625 38.0918 39.1008 39.0749 39.4295 39.1459C39.4392 39.148 39.4499 39.1491 39.4617 39.1491C39.9253 39.1491 41.0066 37.5862 41.7957 36.445C42.3118 35.6985 42.7572 35.0542 43.0088 34.8467C43.3975 34.5261 44.2037 34.2647 44.8086 34.2647C45.1491 34.2647 45.3986 34.3465 45.5313 34.5025C45.6256 34.6122 45.6598 34.7531 45.6341 34.9219C45.5645 35.3791 44.8268 36.0363 43.9735 36.7967C43.0784 37.5938 42.0634 38.4984 42.0559 39.0577C42.0495 39.5675 43.0292 40.9109 43.8172 41.9909C44.7744 43.3031 45.1534 43.8581 45.0452 44.0722C45.0292 44.1034 44.9885 44.1561 44.8921 44.1561C44.844 44.1561 44.784 44.1432 44.7112 44.1152C44.3836 43.9937 44.0838 43.9345 43.7947 43.9345C43.5377 43.9345 43.329 43.9807 43.1448 44.0216C42.9949 44.055 42.8653 44.084 42.7347 44.084C42.6373 44.084 42.5484 44.0668 42.4649 44.0324C42.2219 43.9323 42.0056 43.3913 41.6726 42.5168C41.3643 41.708 40.981 40.7012 40.6448 40.6528C40.5816 40.6442 40.5206 40.6388 40.4638 40.6388C40.1169 40.6388 39.6383 40.7819 39.4938 42.0199C39.4938 42.0339 39.3931 43.8614 39.4638 44.2163C39.4809 44.3045 39.4585 44.3906 39.3985 44.4648C39.2882 44.6003 39.0666 44.6777 38.7903 44.6777Z" fill="#BBDB51"/>
<path d="M38.2582 33.969C38.7239 33.969 39.1618 34.3637 39.4145 34.9091C39.8749 35.9029 38.6522 39.0598 39.4145 39.2244C39.4306 39.2276 39.4466 39.2298 39.4627 39.2298C40.2668 39.2298 42.407 35.4501 43.0612 34.9091C43.436 34.5993 44.2186 34.3454 44.8096 34.3454C45.2722 34.3454 45.618 34.5014 45.5559 34.9091C45.4146 35.8373 41.9905 37.9498 41.9766 39.0555C41.9627 40.1043 45.6019 44.0743 44.8932 44.0743C44.8546 44.0743 44.8043 44.0625 44.74 44.0388C44.3621 43.8979 44.0548 43.8528 43.7957 43.8528C43.3257 43.8528 43.0152 44.0023 42.7357 44.0023C42.6544 44.0023 42.5751 43.9894 42.4959 43.9571C41.9948 43.7495 41.3481 40.6722 40.6565 40.5722C40.5901 40.5625 40.5259 40.5582 40.4638 40.5582C39.8867 40.5582 39.5333 40.9873 39.4145 42.0113C39.4145 42.0113 39.3117 43.8635 39.3856 44.2335C39.4241 44.4271 39.1897 44.5982 38.7903 44.5982C38.4284 44.5982 37.9305 44.4583 37.3791 44.0679C36.2196 43.2483 35.8202 38.1617 37.1393 34.9005C37.4744 34.2346 37.8759 33.969 38.2582 33.969ZM38.2582 33.8076C37.9166 33.8076 37.4198 33.9851 36.9958 34.8273L36.9926 34.8327L36.9905 34.8391C35.6553 38.1391 36.0322 43.3139 37.286 44.2002C37.7967 44.5605 38.331 44.7595 38.7903 44.7595C39.0911 44.7595 39.3353 44.6713 39.4605 44.5175C39.5355 44.425 39.5644 44.3131 39.543 44.2023C39.4862 43.9162 39.5462 42.5394 39.574 42.0253C39.71 40.8679 40.1201 40.7195 40.4638 40.7195C40.5173 40.7195 40.574 40.7238 40.6329 40.7324C40.9231 40.7744 41.3289 41.8403 41.5976 42.5448C41.9488 43.4655 42.1597 43.9926 42.4338 44.1055C42.528 44.1443 42.6255 44.1636 42.7347 44.1636C42.8739 44.1636 43.0141 44.1324 43.1619 44.0991C43.3417 44.0593 43.5462 44.0141 43.7946 44.0141C44.0752 44.0141 44.3653 44.0711 44.6833 44.1894C44.7657 44.2195 44.8343 44.2346 44.8921 44.2346C44.9938 44.2346 45.0762 44.1873 45.1169 44.1066C45.2465 43.8506 44.9006 43.3386 43.8814 41.9414C43.1008 40.8712 42.1297 39.5396 42.1362 39.0566C42.1437 38.5328 43.1437 37.6411 44.027 36.8548C44.8932 36.0836 45.6405 35.4178 45.7144 34.9316C45.7508 34.6918 45.6683 34.5358 45.5934 34.4476C45.4424 34.2712 45.179 34.1819 44.8096 34.1819C44.179 34.1819 43.3664 34.4455 42.9595 34.7821C42.6993 34.9973 42.2507 35.6459 41.7314 36.3966C41.3096 37.0065 40.831 37.6981 40.4059 38.2219C39.7882 38.9835 39.5408 39.0652 39.4637 39.0652C39.4584 39.0652 39.453 39.0652 39.4488 39.0641C39.195 39.0093 39.3706 37.9423 39.4873 37.2356C39.6404 36.3095 39.7978 35.3511 39.5612 34.8391C39.2657 34.2013 38.7667 33.8055 38.2592 33.8055L38.2582 33.8076Z" fill="black"/>
<g opacity="0.3">
<path d="M40.4617 38.9189C41.224 39.0835 43.4403 35.1554 44.1084 34.6036C44.2112 34.5186 44.344 34.439 44.4949 34.3669C43.9649 34.4336 43.3718 34.652 43.0613 34.9091C42.5656 35.3189 41.2165 37.5884 40.2422 38.6629C40.2797 38.8028 40.3482 38.8942 40.4617 38.9189Z" fill="#8DA440"/>
<path d="M43.1929 43.6871C42.6919 43.4817 42.1908 40.5549 41.4991 40.456C41.1051 40.4 41.0066 40.3495 40.7925 40.6582C41.4327 41.0884 42.028 43.7656 42.497 43.9581C42.9981 44.1636 43.4767 43.5731 44.7401 44.0399C45.0741 44.1636 45.0184 43.9205 44.7401 43.5268C44.0206 43.5419 43.5409 43.8301 43.1929 43.6871Z" fill="#8DA440"/>
<path d="M39.3845 44.2292C39.0997 44.155 38.7743 44.0087 38.4263 43.7624C37.2667 42.9428 36.8674 37.8562 38.1865 34.595C38.3064 34.3562 38.4348 34.1701 38.5687 34.0281C38.1029 33.8539 37.5665 34.0507 37.1393 34.9004C35.8203 38.1617 36.2185 43.2493 37.3792 44.0679C38.5387 44.8875 39.4595 44.6035 39.3856 44.2335C39.3856 44.2324 39.3856 44.2303 39.3856 44.2292H39.3845Z" fill="#8DA440"/>
</g>
<path d="M41.618 47.7121C38.6758 47.7121 34.9048 47.2055 34.2614 46.5278C33.6318 45.8653 33.8502 41.5714 33.9733 39.7569C34.165 36.9441 34.5601 33.6506 34.8449 33.2322C35.0665 32.9063 35.6136 32.7116 36.3085 32.7116C37.0034 32.7116 37.8117 32.9246 37.922 33.3914L37.9241 33.4022V33.414C37.9156 33.5893 37.8385 34.0884 37.7303 34.78C37.3396 37.2916 36.4241 43.1741 37.4166 43.9335C37.6672 44.1249 38.2732 44.2185 39.2721 44.2185C40.0569 44.2185 40.9713 44.1626 41.8567 44.1077C42.6705 44.0572 43.4392 44.0098 44.0473 44.0098C44.9157 44.0098 45.2936 44.1034 45.3472 44.3325C45.3921 44.4487 45.8782 45.7663 45.224 47C44.9125 47.5873 43.0912 47.7099 41.6169 47.7099L41.618 47.7121Z" fill="#B1CAC8"/>
<path d="M36.3085 32.7934C37.0259 32.7934 37.7507 33.0192 37.845 33.4118C37.8075 34.2562 36.0773 43.0095 37.3696 44.0002C37.6683 44.2293 38.3867 44.3013 39.2732 44.3013C40.7818 44.3013 42.7819 44.0927 44.0485 44.0927C44.753 44.0927 45.2316 44.1572 45.2712 44.3583C45.2712 44.3583 45.8151 45.719 45.1545 46.9645C44.9029 47.4389 43.4168 47.6325 41.6191 47.6325C38.6919 47.6325 34.9349 47.1205 34.3203 46.4741C33.3278 45.4296 34.407 34.0228 34.9134 33.2795C35.1415 32.945 35.7239 32.7944 36.3107 32.7944M36.3085 32.632C35.588 32.632 35.0162 32.8396 34.7785 33.1881C34.4766 33.6313 34.0837 36.9409 33.8931 39.7526C33.7389 42.021 33.574 45.9244 34.2025 46.5848C34.9145 47.3335 39.0013 47.7938 41.618 47.7938C43.1138 47.7938 44.965 47.6637 45.2958 47.0409C45.9575 45.7932 45.4832 44.4637 45.4254 44.311C45.3579 44.0378 44.9682 43.9313 44.0485 43.9313C43.4382 43.9313 42.6673 43.9786 41.8525 44.0292C40.9692 44.084 40.0559 44.14 39.2732 44.14C38.3075 44.14 37.6993 44.0496 37.467 43.8722C37.194 43.6624 36.9124 42.8417 37.1265 40.1204C37.2732 38.2575 37.5976 36.174 37.8118 34.7951C37.9242 34.0755 37.9981 33.6001 38.0056 33.4204V33.3979L38.0013 33.3753C37.8803 32.8654 37.0387 32.6331 36.3096 32.6331L36.3085 32.632Z" fill="black"/>
<path opacity="0.3" d="M34.8685 45.989C33.9167 44.9876 34.8706 34.4531 35.3963 32.9386C35.1854 33.0171 35.012 33.1301 34.9113 33.2785C34.406 34.0217 33.3267 45.4286 34.3182 46.473C35.3107 47.5174 44.4918 48.2101 45.1524 46.9646C45.1791 46.914 45.2038 46.8624 45.2262 46.8118C43.192 47.5755 35.755 46.9226 34.8674 45.989H34.8685Z" fill="#7D9391"/>
<path d="M29.44 46.4858C26.4721 46.4858 24.4121 44.4745 24.1916 41.3627C24.1006 40.769 23.3136 35.4856 23.7483 34.866C24.0288 34.4659 24.8972 34.2185 25.5396 34.2185C26.1049 34.2185 26.4432 34.4024 26.4657 34.7219L26.9229 41.1669C27.046 42.9073 28.0439 43.9872 29.5246 43.9872C29.5996 43.9872 29.6777 43.984 29.7548 43.9786C31.3705 43.8624 32.2923 42.6416 32.1606 40.7905C32.1339 40.5539 31.4925 34.9144 31.7077 34.3132C31.7977 34.0615 32.1735 33.9388 32.8555 33.9388C33.5375 33.9388 34.3609 34.0754 34.3684 34.0765L34.4305 34.0873L34.893 40.5947C35.0086 42.221 34.5975 43.6376 33.7046 44.6906C32.8148 45.7394 31.5107 46.3546 29.9315 46.4676C29.7666 46.4794 29.6006 46.4858 29.44 46.4858Z" fill="#9A7EB1"/>
<path d="M32.8555 34.0206C33.5632 34.0206 34.3544 34.1572 34.3544 34.1572L34.8116 40.6023C35.044 43.8818 33.09 46.1621 29.9251 46.388C29.7602 46.3998 29.5985 46.4052 29.439 46.4052C26.531 46.4052 24.4914 44.4659 24.2708 41.3573C24.2708 41.3573 23.3843 35.5232 23.8136 34.9123C24.0652 34.553 24.8907 34.2992 25.5396 34.2992C25.9957 34.2992 26.364 34.425 26.3854 34.7283C26.4379 35.463 26.8426 41.1734 26.8426 41.1734C26.9678 42.931 27.9764 44.069 29.5246 44.069C29.6017 44.069 29.6799 44.0657 29.7602 44.0603C31.4411 43.9399 32.3716 42.6319 32.2399 40.7862C32.2399 40.7862 31.5718 34.9327 31.7827 34.3411C31.8715 34.0927 32.3405 34.0206 32.8544 34.0206M32.8555 33.8593C32.1253 33.8593 31.7366 33.9948 31.6317 34.2873C31.4154 34.8951 32.0097 40.1817 32.0803 40.8012C32.2067 42.5997 31.3137 43.7871 29.7484 43.899C29.6734 43.9044 29.5974 43.9076 29.5246 43.9076C28.0899 43.9076 27.1231 42.8557 27.0032 41.1616L26.546 34.7165C26.5203 34.3487 26.1531 34.1378 25.5396 34.1378C24.8768 34.1378 23.9785 34.3981 23.683 34.8198C23.6006 34.9381 23.38 35.2511 23.7226 38.3822C23.8832 39.8515 24.0963 41.2681 24.1123 41.3756C24.3393 44.5293 26.4293 46.5676 29.4411 46.5676C29.6038 46.5676 29.7719 46.5611 29.939 46.5493C31.5396 46.4342 32.863 45.8104 33.7677 44.7444C34.6746 43.6753 35.0921 42.2393 34.9744 40.5904L34.5172 34.1454L34.5086 34.0195L34.3844 33.998C34.3512 33.9926 33.5707 33.8593 32.8576 33.8593H32.8555Z" fill="black"/>
<g opacity="0.4">
<path d="M33.0407 40.271L32.5825 34.0959C32.5825 34.0959 32.0386 33.8969 31.7827 34.3411C31.5268 34.7854 32.2399 40.7862 32.2399 40.7862C32.317 41.8726 32.0257 42.7718 31.4315 43.3537C32.5557 42.9105 33.1467 41.7682 33.0407 40.271Z" fill="#82609E"/>
<path d="M30.726 45.8728C27.5611 46.0997 25.3041 44.1217 25.0717 40.8421C25.0717 40.8421 24.228 35.292 24.5846 34.453C24.2409 34.5616 23.9464 34.723 23.8137 34.9134C23.3843 35.5243 24.2709 41.3584 24.2709 41.3584C24.5032 44.638 26.7602 46.616 29.9251 46.3891C31.1489 46.3009 32.1896 45.9061 32.9958 45.265C32.3395 45.6028 31.5772 45.8125 30.726 45.8738V45.8728Z" fill="#82609E"/>
</g>
<path d="M18.2718 48.9555C16.351 48.9555 14.4345 48.5672 13.2696 47.9412C11.2022 46.8312 9.92805 43.7786 10.0255 40.1656C10.1186 36.6613 11.4655 33.7937 13.4549 32.86C14.321 32.4535 15.3714 32.2383 16.4924 32.2383C19.2023 32.2383 22.228 33.5753 22.4646 36.5117C22.6049 38.2489 21.804 39.2115 21.0074 39.7354C21.0363 39.7354 21.0652 39.7354 21.0942 39.7354C22.7601 39.7354 25.5546 40.2839 25.5546 43.9571C25.5546 47.6303 21.7922 48.9566 18.2718 48.9566V48.9555Z" fill="#83B2E8"/>
<path d="M16.4923 32.319C19.2504 32.319 22.1552 33.6721 22.3843 36.5182C22.5288 38.3069 21.6616 39.2997 20.7001 39.8246C19.5202 39.8805 18.5523 40.171 18.4239 40.2667C18.3543 40.3194 18.4785 40.3592 18.7194 40.3592C19.1498 40.3592 19.9539 40.2323 20.7001 39.8246C20.8286 39.8182 20.9603 39.8149 21.0931 39.8149C23.0909 39.8149 25.4732 40.5679 25.4732 43.956C25.4732 47.5991 21.7633 48.8748 18.2707 48.8748C16.3189 48.8748 14.4356 48.4757 13.3071 47.8702C8.84342 45.4726 9.16677 34.9618 13.4891 32.9332C14.3553 32.5266 15.412 32.319 16.4923 32.319ZM16.4923 32.1577C15.3596 32.1577 14.2975 32.3749 13.4216 32.7869C11.4045 33.7334 10.0394 36.629 9.94515 40.1634C9.90018 41.8521 10.1539 43.4656 10.6796 44.8273C11.2567 46.3235 12.14 47.4249 13.2321 48.0122C14.4077 48.6435 16.3392 49.0361 18.2718 49.0361C20.2044 49.0361 21.9956 48.6403 23.2612 47.9229C24.8137 47.042 25.6349 45.6706 25.6349 43.9571C25.6349 40.3323 22.9678 39.6934 21.259 39.6568C21.9999 39.0943 22.6755 38.1316 22.5449 36.5063C22.304 33.5194 19.2386 32.1587 16.4923 32.1587V32.1577Z" fill="black"/>
<g opacity="0.3">
<path d="M21.6819 39.0114C21.6883 39.0114 21.6947 39.0114 21.7012 39.0114C21.7054 39.0061 21.7108 38.9996 21.7151 38.9932C21.7044 38.9996 21.6926 39.0061 21.6819 39.0114Z" fill="#324BB2"/>
<path d="M14.29 47.057C10.3295 44.9305 10.1368 36.4224 13.1604 33.1096C9.15393 35.5049 8.96013 45.535 13.3082 47.8702C15.7921 49.2039 21.9293 49.5309 24.4089 46.8204C21.5567 48.6296 16.4902 48.238 14.29 47.0559V47.057Z" fill="#324BB2"/>
</g>
<path opacity="0.05" d="M20.7001 39.8246C21.6615 39.2997 22.5288 38.308 22.3842 36.5182C22.0652 32.5589 16.5672 31.4887 13.489 32.9332C13.3841 32.9827 13.2824 33.0386 13.1818 33.0978C16.3221 32.0297 21.1894 33.1999 21.4902 36.9183C21.6348 38.7082 20.7675 39.6999 19.806 40.2248C21.8692 40.1258 24.5802 40.7421 24.5802 44.3562C24.5802 46.2331 23.5952 47.4808 22.1626 48.251C24.0631 47.5486 25.4753 46.2041 25.4753 43.9571C25.4753 40.3431 22.7643 39.7278 20.7011 39.8257L20.7001 39.8246Z" fill="#C2CBFF"/>
<ellipse cx="3.31727" cy="2.32526" rx="3.31727" ry="2.32526" transform="matrix(0.994768 -0.102159 0.101877 0.994797 13.1655 34.5706)" fill="#678CCC"/>
<ellipse cx="2.96405" cy="2.07767" rx="2.96405" ry="2.07767" transform="matrix(0.994768 -0.102159 0.101877 0.994797 13.8683 34.4985)" fill="#6B93D8"/>
<ellipse cx="4.19689" cy="2.65745" rx="4.19689" ry="2.65745" transform="matrix(0.995621 -0.0934778 0.0932196 0.995646 15.1559 41.9855)" fill="#678CCC"/>
<ellipse cx="3.7086" cy="2.34827" rx="3.7086" ry="2.34827" transform="matrix(0.995621 -0.0934778 0.0932196 0.995646 16.1282 41.8943)" fill="#6B93D8"/>
</g>
</g>
<defs>
<clipPath id="clip0_1519_4398">
<rect width="55" height="55" fill="white"/>
</clipPath>
<clipPath id="clip1_1519_4398">
<rect width="35.7831" height="19.2169" fill="white" transform="translate(9.93982 29.8193)"/>
</clipPath>
</defs>
</svg>
