<svg width="142" height="173" viewBox="0 0 142 173" fill="none" xmlns="http://www.w3.org/2000/svg">
<g clip-path="url(#clip0_760_844)">
<path d="M75.3834 172.274C58.0051 172.274 40.6656 168.778 30.1262 163.143C11.4209 153.149 -0.106521 125.669 0.774986 93.1427C1.61774 61.5948 13.8038 35.7794 31.8021 27.3744C39.6388 23.7142 49.1416 21.7775 59.2838 21.7775C83.8013 21.7775 111.176 33.8137 113.317 60.2489C114.586 75.8872 107.34 84.5537 100.124 89.2694C100.385 89.2694 100.647 89.2694 100.908 89.2694C115.981 89.2694 141.264 94.2078 141.264 127.276C141.264 160.344 107.224 172.283 75.3737 172.283L75.3834 172.274Z" fill="#B1CAC8"/>
<path d="M59.2838 22.5037C84.2372 22.5037 110.518 34.6852 112.591 60.3069C113.898 76.4101 106.052 85.3477 97.3532 90.0731C86.6783 90.5766 77.9213 93.1911 76.7589 94.0529C76.1292 94.5274 77.2529 94.8856 79.4325 94.8856C83.3266 94.8856 90.6015 93.743 97.3532 90.0731C98.5156 90.015 99.7071 89.9859 100.908 89.9859C118.984 89.9859 140.537 96.7642 140.537 127.266C140.537 160.063 106.972 171.548 75.3737 171.548C57.7145 171.548 40.6753 167.955 30.4653 162.503C-9.91932 140.92 -6.99388 46.2954 32.1121 28.0329C39.9487 24.3726 49.5097 22.5037 59.2838 22.5037ZM59.2838 21.0513C49.035 21.0513 39.4257 23.0073 31.5018 26.7159C13.2517 35.2372 0.900925 61.3043 0.0484798 93.1233C-0.358369 108.326 1.93742 122.851 6.69368 135.11C11.9149 148.579 19.9066 158.495 29.7872 163.782C40.4234 169.466 57.8985 173 75.3834 173C92.8682 173 109.074 169.437 120.524 162.978C134.57 155.047 142 142.701 142 127.276C142 94.6436 117.87 88.8917 102.41 88.5625C109.113 83.4982 115.226 74.8317 114.044 60.2004C111.864 33.3102 84.1306 21.061 59.2838 21.061V21.0513Z" fill="black"/>
<g opacity="0.3">
<path d="M106.236 82.7526C106.294 82.7526 106.352 82.7526 106.41 82.7526C106.449 82.7042 106.498 82.6461 106.536 82.588C106.44 82.6461 106.333 82.7042 106.236 82.7526Z" fill="#324BB2"/>
<path d="M39.3578 155.183C3.52603 136.039 1.7824 59.4452 29.1381 29.6209C-7.11016 51.1854 -8.86349 141.481 30.4749 162.503C52.9485 174.511 108.474 177.454 130.909 153.053C105.103 169.34 59.2644 165.815 39.3578 155.173V155.183Z" fill="#324BB2"/>
</g>
<path opacity="0.05" d="M97.3532 90.0731C106.052 85.3477 113.898 76.4198 112.591 60.307C109.704 24.6631 59.9618 15.0283 32.112 28.0329C31.1627 28.4783 30.2425 28.9818 29.3319 29.5144C57.7435 19.899 101.78 30.4343 104.502 63.9091C105.81 80.022 97.9635 88.9499 89.2647 93.6753C107.931 92.7844 132.458 98.3329 132.458 130.868C132.458 147.766 123.547 158.998 110.585 165.931C127.78 159.608 140.557 147.504 140.557 127.276C140.557 94.7404 116.03 89.2016 97.3629 90.0828L97.3532 90.0731Z" fill="#C2CBFF"/>
<path d="M43.1937 36.4669C32.8288 36.4669 24.3915 28.7978 24.3915 19.3567C24.3915 9.91557 32.8288 2.25616 43.1937 2.25616C53.5587 2.25616 61.9959 9.92526 61.9959 19.3664C61.9959 28.8075 53.5587 36.4766 43.1937 36.4766V36.4669Z" fill="white"/>
<path d="M43.1938 3.22448C53.0453 3.22448 61.0273 10.4481 61.0273 19.3664C61.0273 28.2846 53.0453 35.5083 43.1938 35.5083C33.3422 35.5083 25.3602 28.2846 25.3602 19.3664C25.3602 10.4481 33.3519 3.22448 43.1938 3.22448ZM43.1938 1.28784C32.296 1.28784 23.4229 9.39268 23.4229 19.3664C23.4229 29.3401 32.2863 37.4449 43.1938 37.4449C54.1012 37.4449 62.9647 29.3401 62.9647 19.3664C62.9647 9.39268 54.0915 1.28784 43.1938 1.28784Z" fill="#111111"/>
<path d="M39.1737 26.9289C45.9253 26.9289 51.3985 21.9737 51.3985 15.861C51.3985 9.74842 45.9253 4.79315 39.1737 4.79315C32.4221 4.79315 26.9489 9.74842 26.9489 15.861C26.9489 21.9737 32.4221 26.9289 39.1737 26.9289Z" fill="black"/>
<g opacity="0.6">
<path d="M56.0676 8.2113C56.6682 9.8284 57.0072 11.5617 57.0072 13.3628C57.0072 22.2713 49.0252 29.5047 39.1737 29.5047C34.1074 29.5047 29.5449 27.5777 26.2998 24.5081C28.6731 30.8894 35.328 35.4986 43.184 35.4986C53.0356 35.4986 61.0176 28.2749 61.0176 19.3567C61.0176 15.0283 59.1287 11.1066 56.0676 8.2113Z" fill="#EFEFEF"/>
</g>
<path d="M85.2156 35.1791C74.8506 35.1791 66.4133 27.51 66.4133 18.0688C66.4133 8.62773 74.8506 0.968323 85.2156 0.968323C95.5805 0.968323 104.018 8.63741 104.018 18.0785C104.018 27.5196 95.5805 35.1887 85.2156 35.1887V35.1791Z" fill="white"/>
<path d="M85.2155 1.93664C95.0671 1.93664 103.049 9.1603 103.049 18.0785C103.049 26.9968 95.0671 34.2204 85.2155 34.2204C75.364 34.2204 67.382 26.9968 67.382 18.0785C67.382 9.1603 75.364 1.93664 85.2155 1.93664ZM85.2155 0C74.3178 0 65.4446 8.10484 65.4446 18.0785C65.4446 28.0522 74.3081 36.1571 85.2155 36.1571C96.1229 36.1571 104.986 28.0522 104.986 18.0785C104.986 8.10484 96.1133 0 85.2155 0Z" fill="#111111"/>
<path d="M81.8542 26.8515C88.9749 26.8515 94.7474 21.6275 94.7474 15.1833C94.7474 8.73907 88.9749 3.51501 81.8542 3.51501C74.7334 3.51501 68.9609 8.73907 68.9609 15.1833C68.9609 21.6275 74.7334 26.8515 81.8542 26.8515Z" fill="black"/>
<g opacity="0.6">
<path d="M98.0893 6.93317C98.6899 8.55026 99.029 10.2836 99.029 12.0846C99.029 20.9932 91.047 28.2265 81.1954 28.2265C76.1292 28.2265 71.5666 26.3092 68.3215 23.23C70.6948 29.6112 77.3497 34.2204 85.2058 34.2204C95.0573 34.2204 103.039 26.9967 103.039 18.0785C103.039 13.7501 101.15 9.82844 98.0893 6.93317Z" fill="#EFEFEF"/>
</g>
<path d="M73.8238 97.5098C53.8397 97.5098 37.5754 85.1928 37.5754 70.0386C37.5754 54.8843 53.83 42.5673 73.8238 42.5673C93.8175 42.5673 110.072 54.8843 110.072 70.0386C110.072 85.1928 93.8175 97.5098 73.8238 97.5098Z" fill="#DD4A8C"/>
<path d="M73.8237 43.0612C93.5753 43.0612 109.588 55.1458 109.588 70.0482C109.588 84.9507 93.5753 97.0353 73.8237 97.0353C54.0722 97.0353 38.0598 84.9507 38.0598 70.0482C38.0598 55.1458 54.0722 43.0612 73.8237 43.0612ZM73.8237 42.0928C53.5685 42.0928 37.0911 54.6326 37.0911 70.0482C37.0911 85.4639 53.5685 98.0036 73.8237 98.0036C94.079 98.0036 110.556 85.4639 110.556 70.0482C110.556 54.6326 94.079 42.0928 73.8237 42.0928Z" fill="black"/>
<path d="M46.4776 73.9312C46.4776 61.1784 60.6011 50.8368 78.0278 50.8368C95.4545 50.8368 108.173 60.1907 109.471 72.072C109.539 71.4039 109.578 70.726 109.578 70.0482C109.578 55.1458 93.5656 43.0612 73.814 43.0612C54.0625 43.0612 38.05 55.1458 38.05 70.0482C38.05 84.9507 54.0625 97.0353 73.814 97.0353C74.5405 97.0353 75.2574 97.0159 75.9742 96.9772C59.5065 96.2025 46.468 86.1901 46.468 73.9409L46.4776 73.9312Z" fill="#B7417C"/>
</g>
<defs>
<clipPath id="clip0_760_844">
<rect width="142" height="173" fill="white"/>
</clipPath>
</defs>
</svg>
