<svg width="52" height="54" viewBox="0 0 52 54" fill="none" xmlns="http://www.w3.org/2000/svg">
<path d="M39.5925 16.0095C39.8375 16.1825 40.1295 16.2745 40.4285 16.2735V16.2695C40.7108 16.2702 40.9871 16.188 41.223 16.0329C41.459 15.8779 41.6441 15.6569 41.7555 15.3975L42.3685 13.5335C42.51 13.1112 42.7478 12.7276 43.0632 12.4131C43.3786 12.0986 43.7628 11.8618 44.1855 11.7215L45.9635 11.1435C46.2504 11.0434 46.4983 10.8552 46.6719 10.6058C46.8455 10.3564 46.9359 10.0585 46.9301 9.75466C46.9243 9.45084 46.8227 9.15661 46.6398 8.91397C46.4569 8.67132 46.202 8.49266 45.9115 8.4035L44.1565 7.8335C43.7321 7.69203 43.3464 7.45363 43.0302 7.13719C42.7139 6.82076 42.4757 6.435 42.3345 6.0105L41.7565 4.2335C41.6557 3.95047 41.4692 3.70587 41.223 3.53369C40.9768 3.3615 40.6831 3.27028 40.3827 3.2727C40.0822 3.27512 39.79 3.37106 39.5466 3.54719C39.3032 3.72332 39.1207 3.97089 39.0245 4.2555L38.4415 6.0475C38.3007 6.45966 38.0683 6.83452 37.7617 7.14387C37.4551 7.45323 37.0824 7.68901 36.6715 7.8335L34.8945 8.4035C34.6093 8.50219 34.3622 8.68775 34.1879 8.93413C34.0136 9.1805 33.9208 9.4753 33.9227 9.77709C33.9246 10.0789 34.021 10.3725 34.1983 10.6167C34.3757 10.8609 34.6251 11.0434 34.9115 11.1385L36.6655 11.7075C37.0899 11.85 37.4753 12.0891 37.7915 12.4059C38.1077 12.7228 38.346 13.1088 38.4875 13.5335L39.0655 15.3085C39.1645 15.5915 39.3485 15.8365 39.5925 16.0095ZM39.2185 11.7585C39.1071 11.6127 38.9858 11.4747 38.8555 11.3455H38.8585C38.3755 10.8624 37.7866 10.4985 37.1385 10.2825L35.5385 9.7745L37.1495 9.2505C37.787 9.02976 38.3653 8.66537 38.8395 8.1855C39.3116 7.70254 39.6676 7.11845 39.8805 6.4775L40.3955 4.8955L40.9115 6.4825C41.1272 7.12927 41.491 7.71674 41.9738 8.19816C42.4566 8.67957 43.0451 9.04162 43.6925 9.2555L45.3125 9.7775L43.7225 10.2925C43.0762 10.5075 42.4889 10.8703 42.0074 11.352C41.5258 11.8337 41.1633 12.4211 40.9485 13.0675L40.4335 14.6495L39.9185 13.0645C39.7607 12.5927 39.524 12.1511 39.2185 11.7585ZM47.2595 21.0555C47.0687 20.9196 46.9253 20.7272 46.8495 20.5055L46.5215 19.4995C46.4579 19.308 46.3506 19.134 46.2081 18.9911C46.0656 18.8483 45.8918 18.7406 45.7005 18.6765L44.7095 18.3535C44.4828 18.2767 44.2857 18.1311 44.1457 17.937C44.0057 17.7428 43.9298 17.5098 43.9285 17.2705C43.9282 17.0325 44.0024 16.8004 44.1407 16.6068C44.2789 16.4131 44.4743 16.2675 44.6995 16.1905L45.7055 15.8645C45.8926 15.798 46.062 15.6895 46.2007 15.5474C46.3394 15.4052 46.4436 15.2332 46.5055 15.0445L46.8295 14.0535C46.9057 13.8293 47.0497 13.6342 47.2416 13.4954C47.4335 13.3565 47.6637 13.2807 47.9006 13.2784C48.1374 13.2761 48.3691 13.3474 48.5636 13.4825C48.7582 13.6176 48.9059 13.8098 48.9865 14.0325L49.3155 15.0465C49.3799 15.2366 49.4875 15.4092 49.6297 15.5507C49.772 15.6923 49.9451 15.799 50.1355 15.8625L51.1275 16.1855C51.3562 16.257 51.5565 16.3987 51.7002 16.5905C51.8438 16.7823 51.9234 17.0144 51.9277 17.2539C51.9321 17.4935 51.8608 17.7283 51.7242 17.9252C51.5876 18.122 51.3924 18.2708 51.1665 18.3505L50.1525 18.6795C49.9618 18.7439 49.7887 18.8516 49.6468 18.9942C49.5048 19.1369 49.3979 19.3105 49.3345 19.5015L49.0125 20.4905C48.9345 20.7205 48.7865 20.9205 48.5875 21.0605C48.3934 21.1985 48.1609 21.2722 47.9227 21.2713C47.6845 21.2704 47.4526 21.195 47.2595 21.0555ZM46.2295 17.2725C46.622 17.4131 46.9781 17.6396 47.2719 17.9355C47.5656 18.2313 47.7896 18.589 47.9275 18.9825C47.6334 19.2766 48.0668 18.5907 47.9275 18.9825C48.2216 18.6884 49.2357 17.4218 49.6275 17.2825C49.2319 17.144 48.8722 16.9187 48.575 16.6231C48.2777 16.3276 48.0503 15.9693 47.9095 15.5745C47.7719 15.9643 47.5498 16.3188 47.2589 16.6125C46.9681 16.9063 46.6159 17.132 46.2275 17.2735" fill="#B2BBFF" fill-opacity="0.7"/>
<path d="M32.6426 7.77713C32.4518 7.64119 32.3084 7.44884 32.2326 7.22713L31.9046 6.22113C31.8411 6.02965 31.7338 5.8556 31.5913 5.71275C31.4488 5.56991 31.275 5.46219 31.0836 5.39813L30.0926 5.07513C29.866 4.99834 29.6689 4.85272 29.5289 4.65859C29.3889 4.46445 29.3129 4.23148 29.3116 3.99213C29.3114 3.75416 29.3855 3.52207 29.5238 3.32839C29.6621 3.13471 29.8575 2.98916 30.0826 2.91213L31.0886 2.58613C31.2758 2.51963 31.4452 2.41115 31.5838 2.269C31.7225 2.12686 31.8268 1.95484 31.8886 1.76613L32.2126 0.775131C32.2889 0.550894 32.4329 0.355871 32.6247 0.217024C32.8166 0.0781759 33.0469 0.00235989 33.2837 5.41936e-05C33.5205 -0.0022515 33.7522 0.069067 33.9468 0.204153C34.1413 0.339239 34.2891 0.53142 34.3696 0.754131L34.6986 1.76813C34.7631 1.95821 34.8706 2.1308 35.0129 2.27237C35.1551 2.41394 35.3283 2.52064 35.5186 2.58413L36.5106 2.90713C36.7393 2.97865 36.9397 3.12034 37.0833 3.31211C37.227 3.50388 37.3066 3.73601 37.3109 3.97557C37.3152 4.21513 37.244 4.44997 37.1074 4.64679C36.9707 4.84361 36.7756 4.99242 36.5496 5.07213L35.5356 5.40113C35.345 5.46549 35.1719 5.57323 35.0299 5.71587C34.888 5.85851 34.7811 6.03215 34.7176 6.22313L34.3956 7.21213C34.3176 7.44213 34.1696 7.64213 33.9706 7.78213C33.7765 7.92013 33.544 7.99387 33.3058 7.99297C33.0677 7.99207 32.8357 7.91659 32.6426 7.77713ZM31.6126 3.99413C32.0051 4.13476 32.3613 4.36127 32.655 4.65711C32.9488 4.95296 33.1728 5.31067 33.3106 5.70413C33.45 5.31231 33.6748 4.95644 33.9689 4.66239C34.263 4.36833 34.6188 4.14347 35.0106 4.00413C34.615 3.8656 34.2554 3.64031 33.9581 3.34478C33.6609 3.04924 33.4335 2.69094 33.2926 2.29613C33.1551 2.68592 32.9329 3.04042 32.6421 3.33417C32.3513 3.62793 31.999 3.85365 31.6106 3.99513" fill="#B2BBFF" fill-opacity="0.7"/>
<path d="M14.7538 20.8799C4.78801 22.7928 -0.405556 30.5451 1.00341 38.0474C1.36042 38.7238 1.7789 39.3659 2.25357 39.9656C7.35394 46.3509 19.9356 49.8159 28.8507 48.2921C36.5925 46.9665 41.183 42.0676 37.9824 35.7512C34.1316 28.161 24.1159 23.814 14.7538 20.874" fill="#6B448E"/>
<path d="M14.2511 38.6373C15.8832 37.2369 17.2863 35.5529 18.3114 33.6846C19.3003 31.2394 20.0964 26.9908 19.2701 24.3875C17.411 18.5528 11.9687 20.4933 7.43139 23.1702C4.74405 24.965 2.42551 27.2986 1.02508 30.1638C0.055796 32.1457 -0.576173 36.6397 0.776358 38.5894C1.17142 39.5987 1.8723 40.6888 2.87439 41.3319C6.38795 43.5913 11.2285 41.2282 14.2525 38.6373" fill="#F99A1E"/>
<path d="M27.3742 32.8998C27.3721 32.7944 27.3402 32.6918 27.2823 32.6038C27.2593 32.3794 27.1399 32.147 26.9509 32.1418C26.586 32.1372 26.1187 31.8544 25.7519 31.6955C25.1606 31.4455 24.5405 31.1751 23.9669 30.7381C23.7247 30.5537 23.4878 30.8057 23.602 31.1948C24.0411 32.7022 24.9329 34.0561 25.9763 34.6139C26.9528 35.1376 27.4352 34.1788 27.3742 32.8998ZM34.5601 39.2378C34.4938 39.1563 34.4054 39.0957 34.3055 39.0633C34.1473 38.9012 33.9117 38.7942 33.7595 38.9077C33.4714 39.1295 32.9273 39.1958 32.5428 39.3008C31.9239 39.4728 31.271 39.646 30.5517 39.6598C30.2459 39.6644 30.2151 40.0109 30.5438 40.2439C31.8262 41.1554 33.367 41.6594 34.5319 41.4507C35.6239 41.2525 35.404 40.2032 34.5601 39.2378ZM15.3352 41.3004C15.2681 41.2203 15.1809 41.1593 15.0826 41.1239C14.9225 40.9631 14.6875 40.8561 14.5346 40.9697C14.2465 41.1928 13.7032 41.2578 13.3179 41.3628C12.6984 41.5347 12.0481 41.7066 11.3236 41.7217C11.0204 41.7263 10.9896 42.0728 11.3216 42.3065C12.602 43.2173 14.1415 43.7213 15.307 43.5126C16.3984 43.3145 16.1766 42.2645 15.3352 41.3004Z" fill="#4E3A68"/>
<path d="M27.3781 53.7048C35.0074 53.7048 41.1922 51.3088 41.1922 48.3531C41.1922 45.3974 35.0074 43.0014 27.3781 43.0014C19.7489 43.0014 13.5641 45.3974 13.5641 48.3531C13.5641 51.3088 19.7489 53.7048 27.3781 53.7048Z" fill="#6B448E"/>
<path d="M41.1903 46.9094C41.1903 49.7181 35.0064 51.996 27.3762 51.996C19.7466 51.996 13.5621 49.7181 13.5621 46.9094C13.5621 44.098 19.746 41.8221 27.3762 41.8221C35.0044 41.8221 41.1903 44.098 41.1903 46.9094Z" fill="#F99A1E"/>
</svg>
