<svg width="16" height="16" viewBox="0 0 16 16" fill="none" xmlns="http://www.w3.org/2000/svg">
<path d="M6.28638 1.84744C7.0637 0.555804 8.9363 0.555802 9.71362 1.84744L10.8547 3.74353C11.134 4.20755 11.5894 4.53849 12.1171 4.66068L14.2729 5.15999C15.7416 5.50013 16.3202 7.28107 15.332 8.41948L13.8814 10.0906C13.5263 10.4996 13.3524 11.0351 13.3992 11.5746L13.5905 13.7793C13.7209 15.2812 12.2059 16.3818 10.8178 15.7938L8.78018 14.9305C8.28151 14.7193 7.71849 14.7193 7.21982 14.9305L5.18218 15.7938C3.79411 16.3818 2.27915 15.2812 2.40949 13.7793L2.60082 11.5746C2.64765 11.0351 2.47367 10.4996 2.11865 10.0906L0.667978 8.41949C-0.320239 7.28107 0.258422 5.50013 1.72705 5.15999L3.88295 4.66068C4.41055 4.53849 4.86605 4.20755 5.1453 3.74353L6.28638 1.84744Z" fill="#D2E4E2"/>
</svg>
