<svg xmlns="http://www.w3.org/2000/svg" width="16" height="17" viewBox="0 0 16 17" fill="none">
  <path d="M8 8.5C6.9 8.5 5.95833 8.10833 5.175 7.325C4.39167 6.54167 4 5.6 4 4.5C4 3.4 4.39167 2.45833 5.175 1.675C5.95833 0.891667 6.9 0.5 8 0.5C9.1 0.5 10.0417 0.891667 10.825 1.675C11.6083 2.45833 12 3.4 12 4.5C12 5.6 11.6083 6.54167 10.825 7.325C10.0417 8.10833 9.1 8.5 8 8.5ZM0 14.5V13.7C0 13.1333 0.146 12.6127 0.438 12.138C0.73 11.6633 1.11733 11.3007 1.6 11.05C2.63333 10.5333 3.68333 10.146 4.75 9.888C5.81667 9.63 6.9 9.50067 8 9.5C9.1 9.49933 10.1833 9.62867 11.25 9.888C12.3167 10.1473 13.3667 10.5347 14.4 11.05C14.8833 11.3 15.271 11.6627 15.563 12.138C15.855 12.6133 16.0007 13.134 16 13.7V14.5C16 15.05 15.8043 15.521 15.413 15.913C15.0217 16.305 14.5507 16.5007 14 16.5H2C1.45 16.5 0.979333 16.3043 0.588 15.913C0.196666 15.5217 0.000666667 15.0507 0 14.5Z" fill="#B5B5B6"/>
</svg>