<svg xmlns="http://www.w3.org/2000/svg" width="28" height="28" viewBox="0 0 28 28" fill="none">
  <path d="M14 14C12.075 14 10.4271 13.3146 9.05625 11.9437C7.68542 10.5729 7 8.925 7 7C7 5.075 7.68542 3.42708 9.05625 2.05625C10.4271 0.685417 12.075 0 14 0C15.925 0 17.5729 0.685417 18.9437 2.05625C20.3146 3.42708 21 5.075 21 7C21 8.925 20.3146 10.5729 18.9437 11.9437C17.5729 13.3146 15.925 14 14 14ZM0 24.5V23.1C0 22.1083 0.2555 21.1972 0.7665 20.3665C1.2775 19.5358 1.95533 18.9012 2.8 18.4625C4.60833 17.5583 6.44583 16.8805 8.3125 16.429C10.1792 15.9775 12.075 15.7512 14 15.75C15.925 15.7488 17.8208 15.9752 19.6875 16.429C21.5542 16.8828 23.3917 17.5607 25.2 18.4625C26.0458 18.9 26.7242 19.5347 27.2352 20.3665C27.7462 21.1983 28.0012 22.1095 28 23.1V24.5C28 25.4625 27.6576 26.2867 26.9727 26.9727C26.2879 27.6587 25.4637 28.0012 24.5 28H3.5C2.5375 28 1.71383 27.6576 1.029 26.9727C0.344166 26.2879 0.00116667 25.4637 0 24.5Z" fill="#F2E1DA"/>
</svg>