<svg width="8" height="15" viewBox="0 0 8 15" fill="none" xmlns="http://www.w3.org/2000/svg">
<path d="M1.39136 5.39136H4.17397V12.8696" stroke="black" stroke-width="2" stroke-linecap="round" stroke-linejoin="round"/>
<path d="M1 13.0435H7" stroke="black" stroke-width="2" stroke-miterlimit="10" stroke-linecap="round"/>
<path d="M3.99995 2.78261C3.72477 2.78261 3.45578 2.70101 3.22698 2.54813C2.99818 2.39525 2.81985 2.17796 2.71455 1.92373C2.60925 1.66951 2.58169 1.38976 2.63538 1.11988C2.68906 0.849988 2.82157 0.602082 3.01615 0.407504C3.21072 0.212927 3.45863 0.0804179 3.72852 0.0267341C3.9984 -0.0269496 4.27815 0.000602826 4.53238 0.105907C4.7866 0.211212 5.0039 0.389539 5.15677 0.618338C5.30965 0.847137 5.39125 1.11613 5.39125 1.39131C5.39125 1.7603 5.24467 2.11419 4.98375 2.37511C4.72283 2.63603 4.36894 2.78261 3.99995 2.78261Z" fill="black"/>
</svg>
