<svg width="23" height="21" viewBox="0 0 23 21" fill="none" xmlns="http://www.w3.org/2000/svg">
<g id="&#236;&#185;&#180;&#236;&#185;&#180;&#236;&#152;&#164; &#235;&#161;&#156;&#234;&#179;&#160;">
<g id="&#235;&#167;&#144;&#237;&#146;&#141;&#236;&#132;&#160;">
<path id="Vector 6" d="M3.74958 20L10.9465 15.1244L6.28729 10.5459L3.74958 20Z" fill="#3C1E1E" stroke="#3C1E1E" stroke-linejoin="round"/>
<ellipse id="Ellipse 39" cx="11.2991" cy="8.8779" rx="11.2991" ry="8.8779" fill="#3C1E1E"/>
</g>
<g id="TALK">
<path d="M3.55614 7.72216C3.37535 7.72216 3.24837 7.68342 3.17519 7.60594C3.10202 7.52415 3.06543 7.42946 3.06543 7.32185C3.06543 7.2745 3.07189 7.2293 3.0848 7.18626C3.10202 7.13891 3.12784 7.09801 3.16228 7.06358C3.20102 7.02484 3.25052 6.99471 3.31078 6.97319C3.37535 6.94736 3.45713 6.93445 3.55614 6.93445H6.81029C6.99107 6.93445 7.11806 6.97534 7.19123 7.05712C7.26441 7.1346 7.30099 7.2293 7.30099 7.34122C7.30099 7.38856 7.29238 7.43591 7.27517 7.48326C7.26225 7.52631 7.23643 7.56505 7.19769 7.59948C7.16325 7.63392 7.11375 7.66405 7.04918 7.68987C6.98892 7.7114 6.90929 7.72216 6.81029 7.72216H5.7514V11.3314C5.7514 11.4175 5.73418 11.4907 5.69974 11.551C5.66961 11.6155 5.62872 11.6672 5.57707 11.7059C5.52541 11.749 5.46515 11.7791 5.39628 11.7963C5.33171 11.8178 5.265 11.8286 5.19613 11.8286C5.12295 11.8286 5.05193 11.8178 4.98306 11.7963C4.91849 11.7791 4.85823 11.749 4.80227 11.7059C4.75062 11.6672 4.70757 11.6155 4.67314 11.551C4.64301 11.4907 4.62794 11.4175 4.62794 11.3314V7.72216H3.55614Z" fill="#FFEB01"/>
<path d="M7.47482 11.5316C7.44038 11.6349 7.36506 11.7145 7.24884 11.7705C7.13262 11.8264 6.99703 11.8372 6.84207 11.8028C6.76028 11.7769 6.69356 11.7425 6.64191 11.6995C6.59026 11.6564 6.55152 11.6069 6.52569 11.551C6.50417 11.495 6.49341 11.439 6.49341 11.3831C6.49341 11.3271 6.50202 11.2733 6.51923 11.2217L7.92033 7.26374C7.95046 7.17765 8.01287 7.09586 8.10757 7.01838C8.20657 6.9366 8.35292 6.89571 8.54662 6.89571C8.74032 6.89571 8.88667 6.9366 8.98568 7.01838C9.08468 7.09586 9.14924 7.17765 9.17938 7.26374L10.5805 11.2346C10.6321 11.3852 10.63 11.5058 10.574 11.5961C10.5181 11.6865 10.4212 11.7511 10.2835 11.7898C10.1199 11.8372 9.98215 11.8329 9.87024 11.7769C9.76263 11.721 9.6873 11.6284 9.64425 11.4993L9.34725 10.6147H7.78474L7.47482 11.5316ZM9.08253 9.83348L8.56599 8.29034L8.04946 9.83348H9.08253Z" fill="#FFEB01"/>
<path d="M11.1346 7.41224C11.1346 7.24867 11.1927 7.12815 11.309 7.05067C11.4252 6.97319 11.5565 6.93445 11.7028 6.93445C11.7717 6.93445 11.8384 6.94521 11.903 6.96673C11.9718 6.98395 12.0321 7.01193 12.0838 7.05067C12.1354 7.08941 12.1763 7.13891 12.2064 7.19917C12.2366 7.25943 12.2516 7.33045 12.2516 7.41224V11.0215H14.1111C14.2919 11.0215 14.4168 11.0624 14.4856 11.1442C14.5588 11.226 14.5954 11.3228 14.5954 11.4347C14.5954 11.4778 14.5889 11.5208 14.576 11.5639C14.5631 11.6112 14.5373 11.6543 14.4985 11.693C14.4641 11.7317 14.4146 11.764 14.35 11.7898C14.2898 11.8157 14.2101 11.8286 14.1111 11.8286H11.6641C11.5005 11.8286 11.3714 11.7898 11.2767 11.7124C11.182 11.6349 11.1346 11.5251 11.1346 11.3831V7.41224Z" fill="#FFEB01"/>
<path d="M16.1138 11.3314C16.1138 11.5079 16.0578 11.6349 15.9459 11.7124C15.834 11.7898 15.7092 11.8286 15.5714 11.8286C15.4982 11.8286 15.4272 11.8178 15.3583 11.7963C15.2895 11.7791 15.2271 11.749 15.1711 11.7059C15.1194 11.6672 15.0764 11.6155 15.042 11.551C15.0118 11.4907 14.9968 11.4175 14.9968 11.3314V7.42515C14.9968 7.34337 15.0118 7.27234 15.042 7.21208C15.0764 7.14752 15.1194 7.09586 15.1711 7.05712C15.2271 7.01408 15.2895 6.98395 15.3583 6.96673C15.4272 6.94521 15.4982 6.93445 15.5714 6.93445C15.7092 6.93445 15.834 6.97534 15.9459 7.05712C16.0578 7.13891 16.1138 7.26158 16.1138 7.42515V8.81333L17.8764 7.08295C17.9238 7.0356 17.9797 7.00116 18.0443 6.97964C18.1132 6.95382 18.182 6.9409 18.2509 6.9409C18.3198 6.9366 18.3844 6.94521 18.4446 6.96673C18.5092 6.98395 18.5651 7.01193 18.6125 7.05067C18.7115 7.13675 18.761 7.24437 18.761 7.3735C18.7653 7.50263 18.7201 7.61239 18.6254 7.70279L17.0177 9.24593L18.7868 10.9957C18.916 11.1205 18.9805 11.2561 18.9805 11.4024C18.9848 11.5531 18.9267 11.6715 18.8062 11.7576C18.6857 11.8437 18.5587 11.8781 18.4253 11.8609C18.2918 11.848 18.1756 11.792 18.0766 11.693L16.1138 9.73663V11.3314Z" fill="#FFEB01"/>
</g>
</g>
</svg>
