<svg width="12" height="12" viewBox="0 0 12 12" fill="none" xmlns="http://www.w3.org/2000/svg">
<path d="M8.348 1C7.326 1 6.4435 1.665 6 2.635C5.5565 1.665 4.674 1 3.652 1C2.187 1 1 2.365 1 4.045C1 5.725 1.9085 7.265 3.0825 8.53C4.2565 9.795 6 11 6 11C6 11 7.687 9.815 8.9175 8.53C10.23 7.16 11 5.73 11 4.045C11 2.36 9.813 1 8.348 1Z" fill="#EA977E"/>
<path d="M8.348 1C7.326 1 6.4435 1.665 6 2.635C5.5565 1.665 4.674 1 3.652 1C2.187 1 1 2.365 1 4.045C1 5.725 1.9085 7.265 3.0825 8.53C4.2565 9.795 6 11 6 11C6 11 7.687 9.815 8.9175 8.53C10.23 7.16 11 5.73 11 4.045C11 2.36 9.813 1 8.348 1Z" fill="#EA977E"/>
<path d="M8.348 1C7.326 1 6.4435 1.665 6 2.635C5.5565 1.665 4.674 1 3.652 1C2.187 1 1 2.365 1 4.045C1 5.725 1.9085 7.265 3.0825 8.53C4.2565 9.795 6 11 6 11C6 11 7.687 9.815 8.9175 8.53C10.23 7.16 11 5.73 11 4.045C11 2.36 9.813 1 8.348 1Z" stroke="black" stroke-linecap="round"/>
</svg>
