<svg width="16" height="18" viewBox="0 0 16 18" fill="none" xmlns="http://www.w3.org/2000/svg">
<path fill-rule="evenodd" clip-rule="evenodd" d="M13.8182 1.8H2.18182C1.98893 1.8 1.80395 1.89482 1.66756 2.0636C1.53117 2.23239 1.45455 2.46131 1.45455 2.7V15.3C1.45455 15.5387 1.53117 15.7676 1.66756 15.9364C1.80395 16.1052 1.98893 16.2 2.18182 16.2H13.8182C14.0111 16.2 14.1961 16.1052 14.3324 15.9364C14.4688 15.7676 14.5455 15.5387 14.5455 15.3V2.7C14.5455 2.46131 14.4688 2.23239 14.3324 2.0636C14.1961 1.89482 14.0111 1.8 13.8182 1.8ZM2.18182 0C1.60316 0 1.04821 0.284464 0.63904 0.790812C0.229869 1.29716 0 1.98392 0 2.7V15.3C0 16.0161 0.229869 16.7028 0.63904 17.2092C1.04821 17.7155 1.60316 18 2.18182 18H13.8182C14.3968 18 14.9518 17.7155 15.361 17.2092C15.7701 16.7028 16 16.0161 16 15.3V2.7C16 1.98392 15.7701 1.29716 15.361 0.790812C14.9518 0.284464 14.3968 0 13.8182 0H2.18182ZM3.63636 4.5H5.09091V6.3H3.63636V4.5ZM7.27273 4.5C7.07984 4.5 6.89486 4.59482 6.75847 4.7636C6.62208 4.93239 6.54545 5.1613 6.54545 5.4C6.54545 5.63869 6.62208 5.86761 6.75847 6.0364C6.89486 6.20518 7.07984 6.3 7.27273 6.3H11.6364C11.8292 6.3 12.0142 6.20518 12.1506 6.0364C12.287 5.86761 12.3636 5.63869 12.3636 5.4C12.3636 5.1613 12.287 4.93239 12.1506 4.7636C12.0142 4.59482 11.8292 4.5 11.6364 4.5H7.27273ZM5.09091 8.1H3.63636V9.9H5.09091V8.1ZM6.54545 9C6.54545 8.7613 6.62208 8.53239 6.75847 8.3636C6.89486 8.19482 7.07984 8.1 7.27273 8.1H11.6364C11.8292 8.1 12.0142 8.19482 12.1506 8.3636C12.287 8.53239 12.3636 8.7613 12.3636 9C12.3636 9.23869 12.287 9.46761 12.1506 9.6364C12.0142 9.80518 11.8292 9.9 11.6364 9.9H7.27273C7.07984 9.9 6.89486 9.80518 6.75847 9.6364C6.62208 9.46761 6.54545 9.23869 6.54545 9ZM5.09091 11.7H3.63636V13.5H5.09091V11.7ZM6.54545 12.6C6.54545 12.3613 6.62208 12.1324 6.75847 11.9636C6.89486 11.7948 7.07984 11.7 7.27273 11.7H11.6364C11.8292 11.7 12.0142 11.7948 12.1506 11.9636C12.287 12.1324 12.3636 12.3613 12.3636 12.6C12.3636 12.8387 12.287 13.0676 12.1506 13.2364C12.0142 13.4052 11.8292 13.5 11.6364 13.5H7.27273C7.07984 13.5 6.89486 13.4052 6.75847 13.2364C6.62208 13.0676 6.54545 12.8387 6.54545 12.6Z" fill="black"/>
</svg>
