<svg width="147" height="179" viewBox="0 0 147 179" fill="none" xmlns="http://www.w3.org/2000/svg">
<path d="M77.8175 177.91C59.8775 177.91 41.9775 174.3 31.0975 168.48C11.7875 158.16 -0.112492 129.78 0.797508 96.19C1.66751 63.61 14.2475 36.95 32.8275 28.27C40.9175 24.49 50.7275 22.49 61.1975 22.49C86.5075 22.49 114.768 34.92 116.978 62.22C118.288 78.37 110.808 87.32 103.368 92.19C103.638 92.19 103.908 92.19 104.178 92.19C119.738 92.19 145.838 97.29 145.838 131.44C145.838 165.59 110.698 177.92 77.8175 177.92V177.91Z" fill="#83B2E8"/>
<path d="M61.1975 23.24C86.9575 23.24 114.088 35.82 116.228 62.28C117.578 78.91 109.478 88.14 100.498 93.02C89.4775 93.54 80.4375 96.24 79.2375 97.13C78.5875 97.62 79.7475 97.99 81.9975 97.99C86.0175 97.99 93.5275 96.81 100.498 93.02C101.698 92.96 102.928 92.93 104.168 92.93C122.828 92.93 145.078 99.93 145.078 131.43C145.078 165.3 110.428 177.16 77.8075 177.16C59.5775 177.16 41.9875 173.45 31.4475 167.82C-10.2425 145.53 -7.22247 47.81 33.1475 28.95C41.2375 25.17 51.1075 23.24 61.1975 23.24ZM61.1975 21.74C50.6175 21.74 40.6975 23.76 32.5175 27.59C13.6775 36.39 0.927526 63.31 0.0475265 96.17C-0.372473 111.87 1.99753 126.87 6.90753 139.53C12.2975 153.44 20.5475 163.68 30.7475 169.14C41.7275 175.01 59.7675 178.66 77.8175 178.66C95.8675 178.66 112.598 174.98 124.418 168.31C138.918 160.12 146.588 147.37 146.588 131.44C146.588 97.74 121.678 91.8 105.718 91.46C112.638 86.23 118.948 77.28 117.728 62.17C115.478 34.4 86.8475 21.75 61.1975 21.75V21.74Z" fill="black"/>
<g opacity="0.3">
<path d="M109.668 85.46C109.728 85.46 109.788 85.46 109.848 85.46C109.888 85.41 109.938 85.35 109.978 85.29C109.878 85.35 109.768 85.41 109.668 85.46Z" fill="#324BB2"/>
<path d="M40.6276 160.26C3.63757 140.49 1.83758 61.3901 30.0776 30.5901C-7.34242 52.8601 -9.15243 146.11 31.4576 167.82C54.6576 180.22 111.978 183.26 135.138 158.06C108.498 174.88 61.1776 171.24 40.6276 160.25V160.26Z" fill="#324BB2"/>
</g>
<path opacity="0.05" d="M100.498 93.0201C109.478 88.1401 117.578 78.9201 116.228 62.2801C113.248 25.4701 61.8976 15.5201 33.1476 28.9501C32.1676 29.4101 31.2176 29.9301 30.2776 30.4801C59.6076 20.5501 105.068 31.4301 107.878 66.0001C109.228 82.6401 101.128 91.8601 92.1476 96.7401C111.418 95.8201 136.738 101.55 136.738 135.15C136.738 152.6 127.538 164.2 114.158 171.36C131.908 164.83 145.098 152.33 145.098 131.44C145.098 97.8401 119.778 92.1201 100.508 93.0301L100.498 93.0201Z" fill="#C2CBFF"/>
<path d="M64.9376 70.6699C64.9376 71.2399 76.1976 71.7099 90.0876 71.7099C103.978 71.7099 115.238 71.2499 115.238 70.6699" stroke="black" stroke-width="2" stroke-linecap="round" stroke-linejoin="round"/>
<path d="M59.3376 62.78C66.2376 67.16 67.2076 72.49 59.7076 79.2" stroke="black" stroke-width="2" stroke-linecap="round" stroke-linejoin="round"/>
<path d="M44.5875 37.6601C33.8875 37.6601 25.1775 29.7401 25.1775 19.9901C25.1775 10.2401 33.8875 2.33008 44.5875 2.33008C55.2875 2.33008 63.9975 10.2501 63.9975 20.0001C63.9975 29.7501 55.2875 37.6701 44.5875 37.6701V37.6601Z" fill="white"/>
<path d="M44.5875 3.33008C54.7575 3.33008 62.9975 10.7901 62.9975 20.0001C62.9975 29.2101 54.7575 36.6701 44.5875 36.6701C34.4175 36.6701 26.1775 29.2101 26.1775 20.0001C26.1775 10.7901 34.4275 3.33008 44.5875 3.33008ZM44.5875 1.33008C33.3375 1.33008 24.1775 9.70008 24.1775 20.0001C24.1775 30.3001 33.3275 38.6701 44.5875 38.6701C55.8475 38.6701 64.9975 30.3001 64.9975 20.0001C64.9975 9.70008 55.8375 1.33008 44.5875 1.33008Z" fill="#111111"/>
<path d="M40.4375 27.8102C47.4073 27.8102 53.0575 22.6928 53.0575 16.3802C53.0575 10.0676 47.4073 4.9502 40.4375 4.9502C33.4677 4.9502 27.8175 10.0676 27.8175 16.3802C27.8175 22.6928 33.4677 27.8102 40.4375 27.8102Z" fill="black"/>
<g opacity="0.6">
<path d="M57.8775 8.47998C58.4975 10.15 58.8475 11.94 58.8475 13.8C58.8475 23 50.6075 30.47 40.4375 30.47C35.2075 30.47 30.4975 28.48 27.1475 25.31C29.5975 31.9 36.4675 36.66 44.5775 36.66C54.7475 36.66 62.9875 29.2 62.9875 19.99C62.9875 15.52 61.0375 11.47 57.8775 8.47998Z" fill="#EFEFEF"/>
</g>
<path d="M87.9676 36.33C77.2676 36.33 68.5576 28.41 68.5576 18.66C68.5576 8.91 77.2676 1 87.9676 1C98.6676 1 107.378 8.92 107.378 18.67C107.378 28.42 98.6676 36.34 87.9676 36.34V36.33Z" fill="white"/>
<path d="M87.9676 2C98.1376 2 106.378 9.46 106.378 18.67C106.378 27.88 98.1376 35.34 87.9676 35.34C77.7976 35.34 69.5576 27.88 69.5576 18.67C69.5576 9.46 77.7976 2 87.9676 2ZM87.9676 0C76.7176 0 67.5576 8.37 67.5576 18.67C67.5576 28.97 76.7076 37.34 87.9676 37.34C99.2276 37.34 108.378 28.97 108.378 18.67C108.378 8.37 99.2176 0 87.9676 0Z" fill="#111111"/>
<path d="M84.4976 27.7299C91.8485 27.7299 97.8076 22.3349 97.8076 15.6799C97.8076 9.02485 91.8485 3.62988 84.4976 3.62988C77.1467 3.62988 71.1876 9.02485 71.1876 15.6799C71.1876 22.3349 77.1467 27.7299 84.4976 27.7299Z" fill="black"/>
<g opacity="0.6">
<path d="M101.258 7.15991C101.878 8.82991 102.228 10.6199 102.228 12.4799C102.228 21.6799 93.9876 29.1499 83.8176 29.1499C78.5876 29.1499 73.8776 27.1699 70.5276 23.9899C72.9776 30.5799 79.8476 35.3399 87.9576 35.3399C98.1276 35.3399 106.368 27.8799 106.368 18.6699C106.368 14.1999 104.418 10.1499 101.258 7.15991Z" fill="#EFEFEF"/>
</g>
</svg>
