<?xml version="1.0" standalone="no"?>
<!DOCTYPE svg PUBLIC "-//W3C//DTD SVG 20010904//EN"
 "http://www.w3.org/TR/2001/REC-SVG-20010904/DTD/svg10.dtd">
<svg version="1.0" xmlns="http://www.w3.org/2000/svg"
 width="350.000000pt" height="200.000000pt" viewBox="0 0 350.000000 200.000000"
 preserveAspectRatio="xMidYMid meet">

<g transform="translate(0.000000,200.000000) scale(0.100000,-0.100000)"
fill="#000000" stroke="none">
<path d="M0 1778 c1 -170 4 -227 14 -240 12 -16 35 -18 215 -18 129 0 200 -4
196 -10 -3 -5 -1 -19 6 -32 10 -18 13 -19 23 -7 6 9 19 18 30 22 22 9 21 4
-25 -148 -81 -263 -101 -325 -114 -335 -8 -6 -87 -35 -177 -65 l-163 -53 -3
-446 -2 -446 1750 0 1750 0 0 415 c-1 228 -5 415 -9 415 -5 0 -14 -7 -21 -15
-26 -31 -49 -27 -186 39 -74 36 -141 66 -149 66 -7 0 -30 -20 -51 -45 -20 -25
-41 -45 -47 -45 -6 0 -42 24 -81 53 -39 29 -97 64 -128 77 -45 20 -58 30 -58
47 0 15 -19 35 -65 67 -36 25 -68 46 -70 46 -2 0 -6 -14 -10 -31 -10 -46 -64
-206 -65 -192 0 11 -70 -51 -70 -63 0 -3 16 7 35 22 20 15 37 25 39 23 2 -2
-3 -32 -11 -66 -12 -51 -18 -61 -34 -60 -10 1 -19 7 -19 14 0 18 0 18 -100
-32 -90 -45 -123 -54 -135 -35 -3 6 0 10 7 10 7 0 -6 12 -30 26 -41 25 -44 25
-69 9 -24 -16 -29 -16 -117 15 -50 18 -134 57 -186 87 -91 53 -99 60 -180 170
-47 63 -113 144 -147 181 -51 55 -62 63 -63 45 0 -13 -16 -37 -35 -54 -37 -34
-45 -59 -20 -59 8 0 15 -6 15 -14 0 -16 -70 -186 -76 -186 -3 0 -19 7 -36 16
-30 16 -34 15 -73 -6 l-40 -22 -40 23 c-35 22 -89 74 -191 186 -22 24 -75 64
-119 91 l-80 48 -16 63 -15 63 -79 46 c-64 38 -75 47 -59 54 16 6 15 7 -6 6
-41 -2 -60 2 -60 11 0 8 45 8 75 0 6 -1 18 1 28 6 11 4 27 1 44 -10 23 -15 25
-15 20 -2 -6 15 43 16 517 17 431 0 525 -2 535 -14 12 -14 57 -11 67 5 3 5 99
9 215 9 192 0 209 -1 210 -17 0 -15 2 -15 9 2 8 19 9 19 9 -1 1 -12 -6 -24
-14 -28 -8 -3 -14 -13 -14 -23 1 -17 2 -17 6 0 2 9 11 17 19 17 9 0 14 10 14
28 0 21 2 24 10 12 6 -10 10 -11 10 -2 0 9 126 12 595 12 l595 0 0 240 0 240
-1750 0 -1750 0 0 -222z m310 32 c0 -5 -4 -10 -10 -10 -5 0 -10 5 -10 10 0 6
5 10 10 10 6 0 10 -4 10 -10z m1036 -27 c-10 -10 -19 5 -10 18 6 11 8 11 12 0
2 -7 1 -15 -2 -18z m723 -14 c-15 -9 -32 -2 -24 11 3 5 13 6 21 3 12 -4 13 -8
3 -14z m1121 -35 c0 -8 -4 -12 -10 -9 -5 3 -10 10 -10 16 0 5 5 9 10 9 6 0 10
-7 10 -16z m-2070 -114 c0 -5 -7 -10 -15 -10 -8 0 -15 5 -15 10 0 6 7 10 15
10 8 0 15 -4 15 -10z m-648 -116 c-13 -9 -26 -13 -30 -9 -8 8 17 25 38 25 9 0
6 -6 -8 -16z m68 6 c0 -5 -2 -10 -4 -10 -3 0 -8 5 -11 10 -3 6 -1 10 4 10 6 0
11 -4 11 -10z m1267 4 c-3 -3 -12 -4 -19 -1 -8 3 -5 6 6 6 11 1 17 -2 13 -5z
m1350 -796 c-3 -8 -6 -5 -6 6 -1 11 2 17 5 13 3 -3 4 -12 1 -19z"/>
<path d="M1008 1503 c6 -2 18 -2 25 0 6 3 1 5 -13 5 -14 0 -19 -2 -12 -5z"/>
<path d="M1390 1500 c0 -5 12 -10 28 -10 21 0 24 2 12 10 -20 13 -40 13 -40 0z"/>
<path d="M20 1485 c0 -8 5 -15 10 -15 6 0 10 7 10 15 0 8 -4 15 -10 15 -5 0
-10 -7 -10 -15z"/>
<path d="M636 1481 c-4 -5 3 -7 14 -4 23 6 26 13 6 13 -8 0 -17 -4 -20 -9z"/>
<path d="M1002 1474 c9 -9 21 -15 27 -13 6 2 -2 10 -17 17 -25 11 -25 11 -10
-4z"/>
<path d="M1776 1467 c3 -10 9 -15 12 -12 3 3 0 11 -7 18 -10 9 -11 8 -5 -6z"/>
<path d="M405 1440 c-3 -6 1 -7 9 -4 18 7 21 14 7 14 -6 0 -13 -4 -16 -10z"/>
</g>
</svg>
