<svg width="42" height="42" viewBox="0 0 42 42" fill="none" xmlns="http://www.w3.org/2000/svg">
<g id="Mask group">
<mask id="mask0_897_4023" style="mask-type:alpha" maskUnits="userSpaceOnUse" x="0" y="0" width="42" height="42">
<circle id="Ellipse 22" cx="21" cy="21" r="21" fill="#D9D9D9"/>
</mask>
<g mask="url(#mask0_897_4023)">
<g id="Vector">
<path d="M42 21C42 32.598 32.598 42 21 42C9.40202 42 0 32.598 0 21C0 9.40202 9.40202 0 21 0C32.598 0 42 9.40202 42 21Z" fill="#D9D9D9"/>
<path d="M21 26C23.0112 26 24.9401 25.1571 26.3622 23.6569C27.7844 22.1566 28.5833 20.1217 28.5833 18C28.5833 15.8783 27.7844 13.8434 26.3622 12.3431C24.9401 10.8429 23.0112 10 21 10C18.9888 10 17.0599 10.8429 15.6378 12.3431C14.2156 13.8434 13.4167 15.8783 13.4167 18C13.4167 20.1217 14.2156 22.1566 15.6378 23.6569C17.0599 25.1571 18.9888 26 21 26ZM11.7917 28.2857C10.7861 28.2857 9.82163 28.7071 9.11055 29.4573C8.39948 30.2074 8 31.2249 8 32.2857V32.8571C8 35.592 9.64992 37.9051 11.9921 39.4777C14.3472 41.0594 17.5355 42 21 42C24.4645 42 27.6517 41.0594 30.0079 39.4777C32.3501 37.9051 34 35.592 34 32.8571V32.2857C34 31.2249 33.6005 30.2074 32.8895 29.4573C32.1784 28.7071 31.2139 28.2857 30.2083 28.2857H11.7917Z" fill="#B7B7B7" fill-opacity="0.7"/>
</g>
</g>
</g>
</svg>
