<svg xmlns="http://www.w3.org/2000/svg" width="49" height="49" viewBox="0 0 49 49" fill="none">
  <mask id="mask0_821_1436" style="mask-type:luminance" maskUnits="userSpaceOnUse" x="2" y="3" width="44" height="43">
    <path d="M21.7262 36.6C23.2004 31.2625 28.3549 27.45 34.2922 28.0803C39.9449 28.6802 44.4386 33.4483 44.7232 39.1213C44.7944 40.6158 44.5911 42.0493 44.1539 43.3811C43.8896 44.1945 43.0966 44.7333 42.2324 44.7333H11.954C6.8219 44.7333 2.9728 40.0373 3.9793 35.0048L10.1667 4.06665H22.3667L26.4334 11.1833L17.7206 17.4155L15.2501 14.2333" fill="#555555"/>
    <path d="M21.7262 36.6C23.2004 31.2625 28.3549 27.45 34.2922 28.0803C39.9449 28.6802 44.4386 33.4483 44.7232 39.1213C44.7944 40.6158 44.5911 42.0493 44.1539 43.3811C43.8896 44.1945 43.0966 44.7333 42.2324 44.7333H11.954C6.8219 44.7333 2.9728 40.0373 3.9793 35.0048L10.1667 4.06665H22.3667L26.4334 11.1833L17.7206 17.4155L15.2501 14.2333M17.7307 17.4155L22.3667 34.5666" stroke="white" stroke-width="2" stroke-miterlimit="2" stroke-linecap="round" stroke-linejoin="round"/>
  </mask>
  <g mask="url(#mask0_821_1436)">
    <path d="M0 0H48.8V48.8H0V0Z" fill="#E9AD89"/>
  </g>
</svg>