<svg width="19" height="19" viewBox="0 0 19 19" fill="none" xmlns="http://www.w3.org/2000/svg">
<path d="M10.2482 5.26471L14.3061 6.34508M9.37946 8.49136L11.4076 9.03197M9.48061 14.5715L10.2915 14.7883C12.5866 15.4003 13.7341 15.7054 14.6385 15.1861C15.5421 14.6676 15.8498 13.526 16.4643 11.2446L17.3339 8.01705C17.9493 5.73477 18.2561 4.59405 17.7342 3.69474C17.2123 2.79542 16.0657 2.49027 13.7698 1.87911L12.9589 1.66235C10.6638 1.05035 9.51631 0.745191 8.61275 1.26455C7.70833 1.78306 7.40063 2.92462 6.78522 5.20606L5.9165 8.43356C5.3011 10.7158 4.99339 11.8566 5.51615 12.7559C6.03806 13.6543 7.18557 13.9603 9.48061 14.5715Z" stroke="black" stroke-width="2" stroke-linecap="round" stroke-linejoin="round"/>
<path d="M9.50015 17.1045L8.69094 17.3255C6.40101 17.9486 5.25689 18.2606 4.35417 17.731C3.45316 17.2023 3.14546 16.0395 2.5326 13.7121L1.66473 10.4209C1.05102 8.0944 0.744169 6.93073 1.26523 6.01442C1.71573 5.22136 2.70005 5.25026 3.97507 5.25026" stroke="black" stroke-width="2" stroke-linecap="round" stroke-linejoin="round"/>
</svg>
