<svg xmlns="http://www.w3.org/2000/svg" width="46" height="43" viewBox="0 0 46 43" fill="none">
  <g filter="url(#filter0_di_491_74)">
    <rect x="3" y="1" width="40" height="37" rx="18.5" fill="#DFDFDF" fill-opacity="0.8" shape-rendering="crispEdges"/>
  </g>
  <path d="M24.5789 10.5789C24.5789 10.1602 24.4126 9.75857 24.1165 9.46246C23.8204 9.16635 23.4188 9 23 9C22.5812 9 22.1796 9.16635 21.8835 9.46246C21.5874 9.75857 21.4211 10.1602 21.4211 10.5789V17.4211H14.5789C14.1602 17.4211 13.7586 17.5874 13.4625 17.8835C13.1664 18.1796 13 18.5812 13 19C13 19.4188 13.1664 19.8204 13.4625 20.1165C13.7586 20.4126 14.1602 20.5789 14.5789 20.5789H21.4211V27.4211C21.4211 27.8398 21.5874 28.2414 21.8835 28.5375C22.1796 28.8336 22.5812 29 23 29C23.4188 29 23.8204 28.8336 24.1165 28.5375C24.4126 28.2414 24.5789 27.8398 24.5789 27.4211V20.5789H31.4211C31.8398 20.5789 32.2414 20.4126 32.5375 20.1165C32.8336 19.8204 33 19.4188 33 19C33 18.5812 32.8336 18.1796 32.5375 17.8835C32.2414 17.5874 31.8398 17.4211 31.4211 17.4211H24.5789V10.5789Z" fill="#B5B5B6"/>
  <defs>
    <filter id="filter0_di_491_74" x="0" y="0" width="46" height="43" filterUnits="userSpaceOnUse" color-interpolation-filters="sRGB">
      <feFlood flood-opacity="0" result="BackgroundImageFix"/>
      <feColorMatrix in="SourceAlpha" type="matrix" values="0 0 0 0 0 0 0 0 0 0 0 0 0 0 0 0 0 0 127 0" result="hardAlpha"/>
      <feMorphology radius="2" operator="erode" in="SourceAlpha" result="effect1_dropShadow_491_74"/>
      <feOffset dy="2"/>
      <feGaussianBlur stdDeviation="2.5"/>
      <feComposite in2="hardAlpha" operator="out"/>
      <feColorMatrix type="matrix" values="0 0 0 0 0 0 0 0 0 0 0 0 0 0 0 0 0 0 0.25 0"/>
      <feBlend mode="normal" in2="BackgroundImageFix" result="effect1_dropShadow_491_74"/>
      <feBlend mode="normal" in="SourceGraphic" in2="effect1_dropShadow_491_74" result="shape"/>
      <feColorMatrix in="SourceAlpha" type="matrix" values="0 0 0 0 0 0 0 0 0 0 0 0 0 0 0 0 0 0 127 0" result="hardAlpha"/>
      <feOffset dy="3"/>
      <feGaussianBlur stdDeviation="2"/>
      <feComposite in2="hardAlpha" operator="arithmetic" k2="-1" k3="1"/>
      <feColorMatrix type="matrix" values="0 0 0 0 1 0 0 0 0 0.972222 0 0 0 0 0.972222 0 0 0 0.25 0"/>
      <feBlend mode="normal" in2="shape" result="effect2_innerShadow_491_74"/>
    </filter>
  </defs>
</svg>