<svg xmlns="http://www.w3.org/2000/svg" width="15" height="15" viewBox="0 0 15 15" fill="none">
  <path d="M8.68421 1.18421C8.68421 0.870138 8.55945 0.56893 8.33736 0.346847C8.11528 0.124765 7.81407 0 7.5 0C7.18593 0 6.88472 0.124765 6.66264 0.346847C6.44055 0.56893 6.31579 0.870138 6.31579 1.18421V6.31579H1.18421C0.870138 6.31579 0.56893 6.44055 0.346847 6.66264C0.124765 6.88472 0 7.18593 0 7.5C0 7.81407 0.124765 8.11528 0.346847 8.33736C0.56893 8.55945 0.870138 8.68421 1.18421 8.68421H6.31579V13.8158C6.31579 14.1299 6.44055 14.4311 6.66264 14.6532C6.88472 14.8752 7.18593 15 7.5 15C7.81407 15 8.11528 14.8752 8.33736 14.6532C8.55945 14.4311 8.68421 14.1299 8.68421 13.8158V8.68421H13.8158C14.1299 8.68421 14.4311 8.55945 14.6532 8.33736C14.8752 8.11528 15 7.81407 15 7.5C15 7.18593 14.8752 6.88472 14.6532 6.66264C14.4311 6.44055 14.1299 6.31579 13.8158 6.31579H8.68421V1.18421Z" fill="#B5B5B6"/>
</svg>