<svg width="14" height="12" viewBox="0 0 14 12" fill="none" xmlns="http://www.w3.org/2000/svg">
<g id="Property 1=pressing">
<path id="Vector" opacity="0.16" d="M11.56 6.77953L7.73603 10.6042C7.4825 10.8576 7.1387 11 6.78021 11C6.42172 11 6.07791 10.8576 5.82439 10.6042L2.00042 6.78021C1.68432 6.46686 1.43322 6.09416 1.26154 5.68351C1.08986 5.27286 1.00098 4.83234 1.00001 4.38725C0.999033 3.94216 1.08598 3.50126 1.25586 3.08986C1.42574 2.67846 1.67521 2.30466 1.98994 1.98994C2.30466 1.67521 2.67846 1.42574 3.08986 1.25586C3.50126 1.08598 3.94216 0.999033 4.38725 1.00001C4.83234 1.00098 5.27286 1.08986 5.68351 1.26154C6.09416 1.43322 6.46686 1.68432 6.78021 2.00042C7.41668 1.3798 8.27204 1.03491 9.16099 1.04048C10.05 1.04605 10.9009 1.40163 11.5296 2.03018C12.1582 2.65874 12.5139 3.50966 12.5196 4.39861C12.5253 5.28757 12.1805 6.14297 11.56 6.77953Z" fill="#F81919"/>
<path id="Vector_2" d="M11.5601 6.77953L7.73614 10.6042C7.48261 10.8576 7.13881 11 6.78032 11C6.42183 11 6.07802 10.8576 5.8245 10.6042L2.00054 6.7802C1.37991 6.14373 1.03502 5.28837 1.04059 4.39942C1.04616 3.51046 1.40174 2.65949 2.03029 2.03085C2.65885 1.40221 3.50977 1.04651 4.39872 1.04081C5.28768 1.03512 6.14309 1.37988 6.77964 2.00042C7.41348 1.36649 8.27319 1.01032 9.16963 1.01025C9.61351 1.01022 10.053 1.09762 10.4631 1.26745C10.8732 1.43729 11.2459 1.68624 11.5598 2.00008C11.8737 2.31393 12.1227 2.68652 12.2925 3.0966C12.4624 3.50667 12.5499 3.9462 12.5499 4.39007C12.55 4.83395 12.4626 5.27348 12.2927 5.68358C12.1229 6.09368 11.8739 6.46564 11.5601 6.77953Z" stroke="black" stroke-width="2" stroke-linecap="round" stroke-linejoin="round"/>
</g>
</svg>
