<svg xmlns="http://www.w3.org/2000/svg" width="8" height="6" viewBox="0 0 8 6" fill="none">
  <path d="M7.45798 2.37363C7.45798 3.03241 7.23796 3.6308 6.79791 4.1688C6.37009 4.70681 5.77726 5.12403 5.01941 5.42049L4.37768 4.76171C4.71994 4.60799 5.0133 4.41585 5.25777 4.18527C5.51446 3.94372 5.67336 3.69668 5.73448 3.44414C5.77115 3.30141 5.72226 3.23004 5.5878 3.23004C5.19665 3.252 4.87884 3.14769 4.63437 2.91712C4.38991 2.68655 4.26767 2.37912 4.26767 1.99483C4.26767 1.62152 4.41435 1.31409 4.70772 1.07253C5.00108 0.830982 5.35555 0.710205 5.77115 0.710205C6.23564 0.710205 6.6329 0.86392 6.96293 1.17135C7.29296 1.47878 7.45798 1.87954 7.45798 2.37363ZM3.91931 2.37363C3.91931 3.03241 3.69929 3.6308 3.25924 4.1688C2.83143 4.70681 2.23859 5.12403 1.48074 5.42049L0.839014 4.76171C1.18127 4.60799 1.47463 4.41585 1.7191 4.18527C1.97579 3.94372 2.13469 3.69668 2.19581 3.44414C2.23248 3.30141 2.18359 3.23004 2.04913 3.23004C1.65798 3.252 1.34017 3.14769 1.09571 2.91712C0.851238 2.68655 0.729004 2.37912 0.729004 1.99483C0.729004 1.62152 0.875684 1.31409 1.16905 1.07253C1.46241 0.830982 1.81688 0.710205 2.23248 0.710205C2.69697 0.710205 3.09423 0.86392 3.42426 1.17135C3.75429 1.47878 3.91931 1.87954 3.91931 2.37363Z" fill="#E97546"/>
</svg>