<svg xmlns="http://www.w3.org/2000/svg" width="19" height="19" viewBox="0 0 19 19" fill="none">
  <path fill-rule="evenodd" clip-rule="evenodd" d="M2.71435 8.14286C2.71435 6.70311 3.28629 5.32233 4.30434 4.30428C5.3224 3.28622 6.70317 2.71429 8.14292 2.71429C9.58267 2.71429 10.9634 3.28622 11.9815 4.30428C12.9996 5.32233 13.5715 6.70311 13.5715 8.14286C13.5715 9.5826 12.9996 10.9634 11.9815 11.9814C10.9634 12.9995 9.58267 13.5714 8.14292 13.5714C6.70317 13.5714 5.3224 12.9995 4.30434 11.9814C3.28629 10.9634 2.71435 9.5826 2.71435 8.14286ZM8.14292 1.53983e-07C6.86138 -0.000163386 5.59789 0.302158 4.45521 0.882376C3.31254 1.46259 2.32295 2.30432 1.56692 3.33911C0.810893 4.37389 0.30978 5.57251 0.104337 6.83748C-0.101106 8.10245 -0.00507852 9.39806 0.38461 10.6189C0.774299 11.8398 1.44664 12.9514 2.34697 13.8634C3.24729 14.7755 4.35016 15.4621 5.56589 15.8675C6.78161 16.2729 8.07587 16.3857 9.34338 16.1966C10.6109 16.0075 11.8159 15.5219 12.8603 14.7793L16.6834 18.6024C16.9394 18.8496 17.2822 18.9864 17.638 18.9833C17.9939 18.9802 18.3343 18.8375 18.5859 18.5858C18.8375 18.3342 18.9802 17.9938 18.9833 17.638C18.9864 17.2821 18.8496 16.9393 18.6024 16.6834L14.7807 12.8616C15.6469 11.6434 16.1611 10.2103 16.2669 8.7192C16.3727 7.22815 16.0661 5.73674 15.3805 4.40841C14.695 3.08007 13.657 1.96607 12.3804 1.18848C11.1038 0.410889 9.63772 -0.000290498 8.14292 1.53983e-07Z" fill="#B5B5B6"/>
</svg>