<svg xmlns="http://www.w3.org/2000/svg" width="16" height="16" viewBox="0 0 16 16" fill="none">
  <path d="M5.40923 2.23587C6.24182 -0.250189 9.75818 -0.250189 10.5908 2.23587C10.9609 3.34109 11.9914 4.08981 13.1569 4.1003C15.7786 4.12391 16.8652 7.46817 14.7581 9.02825C13.8214 9.72181 13.4278 10.9333 13.7779 12.045C14.5656 14.5456 11.7208 16.6125 9.58598 15.0906C8.6369 14.414 7.3631 14.414 6.41402 15.0906C4.27917 16.6125 1.43437 14.5456 2.22206 12.045C2.57224 10.9333 2.17861 9.72181 1.24187 9.02825C-0.865232 7.46817 0.221384 4.12391 2.84305 4.1003C4.00856 4.08981 5.03908 3.34109 5.40923 2.23587Z" fill="#F2E1DA"/>
</svg>