<svg xmlns="http://www.w3.org/2000/svg" width="127" height="31" viewBox="0 0 127 31" fill="none">
  <path d="M12.6316 8.56471C13.5534 5.81229 17.4466 5.81229 18.3684 8.56471V8.56471C18.7782 9.78835 19.9191 10.6173 21.2095 10.6289V10.6289C24.112 10.655 25.3151 14.3576 22.9822 16.0848V16.0848C21.9451 16.8527 21.5093 18.194 21.897 19.4248V19.4248C22.7691 22.1934 19.6195 24.4817 17.2559 22.7967V22.7967C16.2051 22.0477 14.7949 22.0477 13.7441 22.7967V22.7967C11.3805 24.4817 8.23091 22.1934 9.10299 19.4248V19.4248C9.49069 18.194 9.0549 16.8527 8.01778 16.0848V16.0848C5.68492 14.3576 6.88796 10.655 9.79052 10.6289V10.6289C11.0809 10.6173 12.2218 9.78835 12.6316 8.56471V8.56471Z" fill="#F2E1DA"/>
  <path d="M35.4559 8.56471C36.3777 5.81229 40.2708 5.81229 41.1926 8.56471V8.56471C41.6024 9.78835 42.7433 10.6173 44.0337 10.6289V10.6289C46.9363 10.655 48.1393 14.3576 45.8064 16.0848V16.0848C44.7693 16.8527 44.3335 18.194 44.7212 19.4248V19.4248C45.5933 22.1934 42.4437 24.4817 40.0801 22.7967V22.7967C39.0294 22.0477 37.6191 22.0477 36.5683 22.7967V22.7967C34.2047 24.4817 31.0551 22.1934 31.9272 19.4248V19.4248C32.3149 18.194 31.8791 16.8527 30.842 16.0848V16.0848C28.5091 14.3576 29.7122 10.655 32.6147 10.6289V10.6289C33.9051 10.6173 35.0461 9.78835 35.4559 8.56471V8.56471Z" fill="#E0E0E0"/>
  <path d="M59.6426 8.56471C60.5644 5.81229 64.4575 5.81229 65.3793 8.56471V8.56471C65.7891 9.78835 66.9301 10.6173 68.2205 10.6289V10.6289C71.123 10.655 72.3261 14.3576 69.9932 16.0848V16.0848C68.9561 16.8527 68.5203 18.194 68.908 19.4248V19.4248C69.7801 22.1934 66.6305 24.4817 64.2669 22.7967V22.7967C63.2161 22.0477 61.8059 22.0477 60.7551 22.7967V22.7967C58.3915 24.4817 55.2419 22.1934 56.114 19.4248V19.4248C56.5017 18.194 56.0659 16.8527 55.0288 16.0848V16.0848C52.6959 14.3576 53.8989 10.655 56.8015 10.6289V10.6289C58.0919 10.6173 59.2328 9.78835 59.6426 8.56471V8.56471Z" fill="#E0E0E0"/>
  <path d="M83.8294 8.56471C84.7512 5.81229 88.6443 5.81229 89.5661 8.56471V8.56471C89.9759 9.78835 91.1168 10.6173 92.4072 10.6289V10.6289C95.3098 10.655 96.5128 14.3576 94.18 16.0848V16.0848C93.1429 16.8527 92.7071 18.194 93.0948 19.4248V19.4248C93.9668 22.1934 90.8172 24.4817 88.4537 22.7967V22.7967C87.4029 22.0477 85.9926 22.0477 84.9418 22.7967V22.7967C82.5783 24.4817 79.4287 22.1934 80.3007 19.4248V19.4248C80.6884 18.194 80.2526 16.8527 79.2155 16.0848V16.0848C76.8827 14.3576 78.0857 10.655 80.9883 10.6289V10.6289C82.2787 10.6173 83.4196 9.78835 83.8294 8.56471V8.56471Z" fill="#E0E0E0"/>
  <path d="M108.016 8.56471C108.938 5.81229 112.831 5.81229 113.753 8.56471V8.56471C114.163 9.78835 115.304 10.6173 116.594 10.6289V10.6289C119.497 10.655 120.7 14.3576 118.367 16.0848V16.0848C117.33 16.8527 116.894 18.194 117.282 19.4248V19.4248C118.154 22.1934 115.004 24.4817 112.641 22.7967V22.7967C111.59 22.0477 110.18 22.0477 109.129 22.7967V22.7967C106.765 24.4817 103.616 22.1934 104.488 19.4248V19.4248C104.875 18.194 104.44 16.8527 103.403 16.0848V16.0848C101.07 14.3576 102.273 10.655 105.175 10.6289V10.6289C106.466 10.6173 107.607 9.78835 108.016 8.56471V8.56471Z" fill="#E0E0E0"/>
</svg>