<svg xmlns="http://www.w3.org/2000/svg" width="32" height="31" viewBox="0 0 32 31" fill="none">
  <g filter="url(#filter0_dii_754_1139)">
    <path d="M31.6219 16C31.8687 15.0411 32 14.0359 32 13C32 6.37258 26.6274 1 20 1C13.3726 1 8 6.37258 8 13C8 16.0433 9.13291 18.8221 11 20.9375V20H29.7479C29.9794 19.6782 30.1953 19.3445 30.3946 19H10V18H30.9119C31.0614 17.6743 31.1968 17.3407 31.3172 17H9V16H31.6219Z" fill="#F8A569"/>
    <path d="M11.0556 21C11.6377 21.6505 12.2898 22.237 13 22.7479V22H27.9375C28.2924 21.6867 28.6287 21.3527 28.9444 21H11.0556Z" fill="#F8A569"/>
    <path d="M15.1966 24C14.5546 23.7193 13.9419 23.384 13.3644 23H26.6356C26.0581 23.384 25.4454 23.7193 24.8034 24H15.1966Z" fill="#F8A569"/>
  </g>
  <defs>
    <filter id="filter0_dii_754_1139" x="0" y="0" width="32" height="31" filterUnits="userSpaceOnUse" color-interpolation-filters="sRGB">
      <feFlood flood-opacity="0" result="BackgroundImageFix"/>
      <feColorMatrix in="SourceAlpha" type="matrix" values="0 0 0 0 0 0 0 0 0 0 0 0 0 0 0 0 0 0 127 0" result="hardAlpha"/>
      <feOffset dx="-4" dy="3"/>
      <feGaussianBlur stdDeviation="2"/>
      <feComposite in2="hardAlpha" operator="out"/>
      <feColorMatrix type="matrix" values="0 0 0 0 0.883333 0 0 0 0 0.597074 0 0 0 0 0.390139 0 0 0 0.3 0"/>
      <feBlend mode="normal" in2="BackgroundImageFix" result="effect1_dropShadow_754_1139"/>
      <feBlend mode="normal" in="SourceGraphic" in2="effect1_dropShadow_754_1139" result="shape"/>
      <feColorMatrix in="SourceAlpha" type="matrix" values="0 0 0 0 0 0 0 0 0 0 0 0 0 0 0 0 0 0 127 0" result="hardAlpha"/>
      <feOffset dx="-3" dy="2"/>
      <feGaussianBlur stdDeviation="2"/>
      <feComposite in2="hardAlpha" operator="arithmetic" k2="-1" k3="1"/>
      <feColorMatrix type="matrix" values="0 0 0 0 1 0 0 0 0 0.743648 0 0 0 0 0.558333 0 0 0 0.2 0"/>
      <feBlend mode="normal" in2="shape" result="effect2_innerShadow_754_1139"/>
      <feColorMatrix in="SourceAlpha" type="matrix" values="0 0 0 0 0 0 0 0 0 0 0 0 0 0 0 0 0 0 127 0" result="hardAlpha"/>
      <feOffset dx="-4" dy="3"/>
      <feGaussianBlur stdDeviation="2"/>
      <feComposite in2="hardAlpha" operator="arithmetic" k2="-1" k3="1"/>
      <feColorMatrix type="matrix" values="0 0 0 0 1 0 0 0 0 0.908923 0 0 0 0 0.841667 0 0 0 0.25 0"/>
      <feBlend mode="normal" in2="effect2_innerShadow_754_1139" result="effect3_innerShadow_754_1139"/>
    </filter>
  </defs>
</svg>